G04 #@! TF.GenerationSoftware,KiCad,Pcbnew,(5.1.4)-1*
G04 #@! TF.CreationDate,2019-09-17T14:56:49+03:00*
G04 #@! TF.ProjectId,Project_1_Breadboard_power_supply,50726f6a-6563-4745-9f31-5f4272656164,v1*
G04 #@! TF.SameCoordinates,Original*
G04 #@! TF.FileFunction,Legend,Top*
G04 #@! TF.FilePolarity,Positive*
%FSLAX46Y46*%
G04 Gerber Fmt 4.6, Leading zero omitted, Abs format (unit mm)*
G04 Created by KiCad (PCBNEW (5.1.4)-1) date 2019-09-17 14:56:49*
%MOMM*%
%LPD*%
G04 APERTURE LIST*
%ADD10C,0.150000*%
%ADD11C,0.120000*%
%ADD12C,0.100000*%
G04 APERTURE END LIST*
D10*
X146645380Y-112140714D02*
X146645380Y-112616904D01*
X147121571Y-112664523D01*
X147073952Y-112616904D01*
X147026333Y-112521666D01*
X147026333Y-112283571D01*
X147073952Y-112188333D01*
X147121571Y-112140714D01*
X147216809Y-112093095D01*
X147454904Y-112093095D01*
X147550142Y-112140714D01*
X147597761Y-112188333D01*
X147645380Y-112283571D01*
X147645380Y-112521666D01*
X147597761Y-112616904D01*
X147550142Y-112664523D01*
X146645380Y-111235952D02*
X146645380Y-111426428D01*
X146693000Y-111521666D01*
X146740619Y-111569285D01*
X146883476Y-111664523D01*
X147073952Y-111712142D01*
X147454904Y-111712142D01*
X147550142Y-111664523D01*
X147597761Y-111616904D01*
X147645380Y-111521666D01*
X147645380Y-111331190D01*
X147597761Y-111235952D01*
X147550142Y-111188333D01*
X147454904Y-111140714D01*
X147216809Y-111140714D01*
X147121571Y-111188333D01*
X147073952Y-111235952D01*
X147026333Y-111331190D01*
X147026333Y-111521666D01*
X147073952Y-111616904D01*
X147121571Y-111664523D01*
X147216809Y-111712142D01*
X146645380Y-110521666D02*
X146645380Y-110426428D01*
X146693000Y-110331190D01*
X146740619Y-110283571D01*
X146835857Y-110235952D01*
X147026333Y-110188333D01*
X147264428Y-110188333D01*
X147454904Y-110235952D01*
X147550142Y-110283571D01*
X147597761Y-110331190D01*
X147645380Y-110426428D01*
X147645380Y-110521666D01*
X147597761Y-110616904D01*
X147550142Y-110664523D01*
X147454904Y-110712142D01*
X147264428Y-110759761D01*
X147026333Y-110759761D01*
X146835857Y-110712142D01*
X146740619Y-110664523D01*
X146693000Y-110616904D01*
X146645380Y-110521666D01*
X147645380Y-109616904D02*
X147597761Y-109712142D01*
X147550142Y-109759761D01*
X147454904Y-109807380D01*
X147169190Y-109807380D01*
X147073952Y-109759761D01*
X147026333Y-109712142D01*
X146978714Y-109616904D01*
X146978714Y-109474047D01*
X147026333Y-109378809D01*
X147073952Y-109331190D01*
X147169190Y-109283571D01*
X147454904Y-109283571D01*
X147550142Y-109331190D01*
X147597761Y-109378809D01*
X147645380Y-109474047D01*
X147645380Y-109616904D01*
X147645380Y-108855000D02*
X146978714Y-108855000D01*
X147073952Y-108855000D02*
X147026333Y-108807380D01*
X146978714Y-108712142D01*
X146978714Y-108569285D01*
X147026333Y-108474047D01*
X147121571Y-108426428D01*
X147645380Y-108426428D01*
X147121571Y-108426428D02*
X147026333Y-108378809D01*
X146978714Y-108283571D01*
X146978714Y-108140714D01*
X147026333Y-108045476D01*
X147121571Y-107997857D01*
X147645380Y-107997857D01*
X147645380Y-107521666D02*
X146645380Y-107521666D01*
X147645380Y-107093095D02*
X147121571Y-107093095D01*
X147026333Y-107140714D01*
X146978714Y-107235952D01*
X146978714Y-107378809D01*
X147026333Y-107474047D01*
X147073952Y-107521666D01*
X140549380Y-80009714D02*
X140549380Y-80485904D01*
X141025571Y-80533523D01*
X140977952Y-80485904D01*
X140930333Y-80390666D01*
X140930333Y-80152571D01*
X140977952Y-80057333D01*
X141025571Y-80009714D01*
X141120809Y-79962095D01*
X141358904Y-79962095D01*
X141454142Y-80009714D01*
X141501761Y-80057333D01*
X141549380Y-80152571D01*
X141549380Y-80390666D01*
X141501761Y-80485904D01*
X141454142Y-80533523D01*
X140549380Y-79104952D02*
X140549380Y-79295428D01*
X140597000Y-79390666D01*
X140644619Y-79438285D01*
X140787476Y-79533523D01*
X140977952Y-79581142D01*
X141358904Y-79581142D01*
X141454142Y-79533523D01*
X141501761Y-79485904D01*
X141549380Y-79390666D01*
X141549380Y-79200190D01*
X141501761Y-79104952D01*
X141454142Y-79057333D01*
X141358904Y-79009714D01*
X141120809Y-79009714D01*
X141025571Y-79057333D01*
X140977952Y-79104952D01*
X140930333Y-79200190D01*
X140930333Y-79390666D01*
X140977952Y-79485904D01*
X141025571Y-79533523D01*
X141120809Y-79581142D01*
X140549380Y-78390666D02*
X140549380Y-78295428D01*
X140597000Y-78200190D01*
X140644619Y-78152571D01*
X140739857Y-78104952D01*
X140930333Y-78057333D01*
X141168428Y-78057333D01*
X141358904Y-78104952D01*
X141454142Y-78152571D01*
X141501761Y-78200190D01*
X141549380Y-78295428D01*
X141549380Y-78390666D01*
X141501761Y-78485904D01*
X141454142Y-78533523D01*
X141358904Y-78581142D01*
X141168428Y-78628761D01*
X140930333Y-78628761D01*
X140739857Y-78581142D01*
X140644619Y-78533523D01*
X140597000Y-78485904D01*
X140549380Y-78390666D01*
X141549380Y-77485904D02*
X141501761Y-77581142D01*
X141454142Y-77628761D01*
X141358904Y-77676380D01*
X141073190Y-77676380D01*
X140977952Y-77628761D01*
X140930333Y-77581142D01*
X140882714Y-77485904D01*
X140882714Y-77343047D01*
X140930333Y-77247809D01*
X140977952Y-77200190D01*
X141073190Y-77152571D01*
X141358904Y-77152571D01*
X141454142Y-77200190D01*
X141501761Y-77247809D01*
X141549380Y-77343047D01*
X141549380Y-77485904D01*
X141549380Y-76724000D02*
X140882714Y-76724000D01*
X140977952Y-76724000D02*
X140930333Y-76676380D01*
X140882714Y-76581142D01*
X140882714Y-76438285D01*
X140930333Y-76343047D01*
X141025571Y-76295428D01*
X141549380Y-76295428D01*
X141025571Y-76295428D02*
X140930333Y-76247809D01*
X140882714Y-76152571D01*
X140882714Y-76009714D01*
X140930333Y-75914476D01*
X141025571Y-75866857D01*
X141549380Y-75866857D01*
X141549380Y-75390666D02*
X140549380Y-75390666D01*
X141549380Y-74962095D02*
X141025571Y-74962095D01*
X140930333Y-75009714D01*
X140882714Y-75104952D01*
X140882714Y-75247809D01*
X140930333Y-75343047D01*
X140977952Y-75390666D01*
X145899333Y-72048714D02*
X145899333Y-72715380D01*
X145661238Y-71667761D02*
X145423142Y-72382047D01*
X146042190Y-72382047D01*
X146327904Y-71715380D02*
X146994571Y-71715380D01*
X146566000Y-72715380D01*
X147804095Y-72048714D02*
X147804095Y-72715380D01*
X147375523Y-72048714D02*
X147375523Y-72572523D01*
X147423142Y-72667761D01*
X147518380Y-72715380D01*
X147661238Y-72715380D01*
X147756476Y-72667761D01*
X147804095Y-72620142D01*
X148613619Y-72191571D02*
X148280285Y-72191571D01*
X148280285Y-72715380D02*
X148280285Y-71715380D01*
X148756476Y-71715380D01*
X135644142Y-75731714D02*
X135644142Y-76398380D01*
X135406047Y-75350761D02*
X135167952Y-76065047D01*
X135787000Y-76065047D01*
X136072714Y-75398380D02*
X136739380Y-75398380D01*
X136310809Y-76398380D01*
X137310809Y-75398380D02*
X137406047Y-75398380D01*
X137501285Y-75446000D01*
X137548904Y-75493619D01*
X137596523Y-75588857D01*
X137644142Y-75779333D01*
X137644142Y-76017428D01*
X137596523Y-76207904D01*
X137548904Y-76303142D01*
X137501285Y-76350761D01*
X137406047Y-76398380D01*
X137310809Y-76398380D01*
X137215571Y-76350761D01*
X137167952Y-76303142D01*
X137120333Y-76207904D01*
X137072714Y-76017428D01*
X137072714Y-75779333D01*
X137120333Y-75588857D01*
X137167952Y-75493619D01*
X137215571Y-75446000D01*
X137310809Y-75398380D01*
X138501285Y-75731714D02*
X138501285Y-76398380D01*
X138072714Y-75731714D02*
X138072714Y-76255523D01*
X138120333Y-76350761D01*
X138215571Y-76398380D01*
X138358428Y-76398380D01*
X138453666Y-76350761D01*
X138501285Y-76303142D01*
X139310809Y-75874571D02*
X138977476Y-75874571D01*
X138977476Y-76398380D02*
X138977476Y-75398380D01*
X139453666Y-75398380D01*
X140018023Y-120864380D02*
X140637071Y-120864380D01*
X140303738Y-121245333D01*
X140446595Y-121245333D01*
X140541833Y-121292952D01*
X140589452Y-121340571D01*
X140637071Y-121435809D01*
X140637071Y-121673904D01*
X140589452Y-121769142D01*
X140541833Y-121816761D01*
X140446595Y-121864380D01*
X140160880Y-121864380D01*
X140065642Y-121816761D01*
X140018023Y-121769142D01*
X141256119Y-120864380D02*
X141351357Y-120864380D01*
X141446595Y-120912000D01*
X141494214Y-120959619D01*
X141541833Y-121054857D01*
X141589452Y-121245333D01*
X141589452Y-121483428D01*
X141541833Y-121673904D01*
X141494214Y-121769142D01*
X141446595Y-121816761D01*
X141351357Y-121864380D01*
X141256119Y-121864380D01*
X141160880Y-121816761D01*
X141113261Y-121769142D01*
X141065642Y-121673904D01*
X141018023Y-121483428D01*
X141018023Y-121245333D01*
X141065642Y-121054857D01*
X141113261Y-120959619D01*
X141160880Y-120912000D01*
X141256119Y-120864380D01*
X142065642Y-121816761D02*
X142065642Y-121864380D01*
X142018023Y-121959619D01*
X141970404Y-122007238D01*
X142684690Y-120864380D02*
X142779928Y-120864380D01*
X142875166Y-120912000D01*
X142922785Y-120959619D01*
X142970404Y-121054857D01*
X143018023Y-121245333D01*
X143018023Y-121483428D01*
X142970404Y-121673904D01*
X142922785Y-121769142D01*
X142875166Y-121816761D01*
X142779928Y-121864380D01*
X142684690Y-121864380D01*
X142589452Y-121816761D01*
X142541833Y-121769142D01*
X142494214Y-121673904D01*
X142446595Y-121483428D01*
X142446595Y-121245333D01*
X142494214Y-121054857D01*
X142541833Y-120959619D01*
X142589452Y-120912000D01*
X142684690Y-120864380D01*
X143494214Y-121864380D02*
X143684690Y-121864380D01*
X143779928Y-121816761D01*
X143827547Y-121769142D01*
X143922785Y-121626285D01*
X143970404Y-121435809D01*
X143970404Y-121054857D01*
X143922785Y-120959619D01*
X143875166Y-120912000D01*
X143779928Y-120864380D01*
X143589452Y-120864380D01*
X143494214Y-120912000D01*
X143446595Y-120959619D01*
X143398976Y-121054857D01*
X143398976Y-121292952D01*
X143446595Y-121388190D01*
X143494214Y-121435809D01*
X143589452Y-121483428D01*
X143779928Y-121483428D01*
X143875166Y-121435809D01*
X143922785Y-121388190D01*
X143970404Y-121292952D01*
X144446595Y-121864380D02*
X144637071Y-121864380D01*
X144732309Y-121816761D01*
X144779928Y-121769142D01*
X144875166Y-121626285D01*
X144922785Y-121435809D01*
X144922785Y-121054857D01*
X144875166Y-120959619D01*
X144827547Y-120912000D01*
X144732309Y-120864380D01*
X144541833Y-120864380D01*
X144446595Y-120912000D01*
X144398976Y-120959619D01*
X144351357Y-121054857D01*
X144351357Y-121292952D01*
X144398976Y-121388190D01*
X144446595Y-121435809D01*
X144541833Y-121483428D01*
X144732309Y-121483428D01*
X144827547Y-121435809D01*
X144875166Y-121388190D01*
X144922785Y-121292952D01*
X146113261Y-121864380D02*
X146113261Y-121197714D01*
X146113261Y-121292952D02*
X146160880Y-121245333D01*
X146256119Y-121197714D01*
X146398976Y-121197714D01*
X146494214Y-121245333D01*
X146541833Y-121340571D01*
X146541833Y-121864380D01*
X146541833Y-121340571D02*
X146589452Y-121245333D01*
X146684690Y-121197714D01*
X146827547Y-121197714D01*
X146922785Y-121245333D01*
X146970404Y-121340571D01*
X146970404Y-121864380D01*
X147446595Y-121864380D02*
X147446595Y-121197714D01*
X147446595Y-121292952D02*
X147494214Y-121245333D01*
X147589452Y-121197714D01*
X147732309Y-121197714D01*
X147827547Y-121245333D01*
X147875166Y-121340571D01*
X147875166Y-121864380D01*
X147875166Y-121340571D02*
X147922785Y-121245333D01*
X148018023Y-121197714D01*
X148160880Y-121197714D01*
X148256119Y-121245333D01*
X148303738Y-121340571D01*
X148303738Y-121864380D01*
D11*
X129159000Y-120142000D02*
X159258000Y-120142000D01*
X129159000Y-116332000D02*
X129159000Y-120728421D01*
X159258000Y-116332000D02*
X159258000Y-120728421D01*
X159258000Y-120142000D02*
X158131496Y-120728421D01*
X159258000Y-120142000D02*
X158131496Y-119555579D01*
X129159000Y-120142000D02*
X130285504Y-120728421D01*
X129159000Y-120142000D02*
X130285504Y-119555579D01*
D10*
X165949380Y-70944976D02*
X165949380Y-71135452D01*
X165997000Y-71230690D01*
X166044619Y-71278309D01*
X166187476Y-71373547D01*
X166377952Y-71421166D01*
X166758904Y-71421166D01*
X166854142Y-71373547D01*
X166901761Y-71325928D01*
X166949380Y-71230690D01*
X166949380Y-71040214D01*
X166901761Y-70944976D01*
X166854142Y-70897357D01*
X166758904Y-70849738D01*
X166520809Y-70849738D01*
X166425571Y-70897357D01*
X166377952Y-70944976D01*
X166330333Y-71040214D01*
X166330333Y-71230690D01*
X166377952Y-71325928D01*
X166425571Y-71373547D01*
X166520809Y-71421166D01*
X166901761Y-70373547D02*
X166949380Y-70373547D01*
X167044619Y-70421166D01*
X167092238Y-70468785D01*
X166949380Y-69897357D02*
X166949380Y-69706880D01*
X166901761Y-69611642D01*
X166854142Y-69564023D01*
X166711285Y-69468785D01*
X166520809Y-69421166D01*
X166139857Y-69421166D01*
X166044619Y-69468785D01*
X165997000Y-69516404D01*
X165949380Y-69611642D01*
X165949380Y-69802119D01*
X165997000Y-69897357D01*
X166044619Y-69944976D01*
X166139857Y-69992595D01*
X166377952Y-69992595D01*
X166473190Y-69944976D01*
X166520809Y-69897357D01*
X166568428Y-69802119D01*
X166568428Y-69611642D01*
X166520809Y-69516404D01*
X166473190Y-69468785D01*
X166377952Y-69421166D01*
X166377952Y-68849738D02*
X166330333Y-68944976D01*
X166282714Y-68992595D01*
X166187476Y-69040214D01*
X166139857Y-69040214D01*
X166044619Y-68992595D01*
X165997000Y-68944976D01*
X165949380Y-68849738D01*
X165949380Y-68659261D01*
X165997000Y-68564023D01*
X166044619Y-68516404D01*
X166139857Y-68468785D01*
X166187476Y-68468785D01*
X166282714Y-68516404D01*
X166330333Y-68564023D01*
X166377952Y-68659261D01*
X166377952Y-68849738D01*
X166425571Y-68944976D01*
X166473190Y-68992595D01*
X166568428Y-69040214D01*
X166758904Y-69040214D01*
X166854142Y-68992595D01*
X166901761Y-68944976D01*
X166949380Y-68849738D01*
X166949380Y-68659261D01*
X166901761Y-68564023D01*
X166854142Y-68516404D01*
X166758904Y-68468785D01*
X166568428Y-68468785D01*
X166473190Y-68516404D01*
X166425571Y-68564023D01*
X166377952Y-68659261D01*
X165949380Y-67564023D02*
X165949380Y-68040214D01*
X166425571Y-68087833D01*
X166377952Y-68040214D01*
X166330333Y-67944976D01*
X166330333Y-67706880D01*
X166377952Y-67611642D01*
X166425571Y-67564023D01*
X166520809Y-67516404D01*
X166758904Y-67516404D01*
X166854142Y-67564023D01*
X166901761Y-67611642D01*
X166949380Y-67706880D01*
X166949380Y-67944976D01*
X166901761Y-68040214D01*
X166854142Y-68087833D01*
X166949380Y-66325928D02*
X166282714Y-66325928D01*
X166377952Y-66325928D02*
X166330333Y-66278309D01*
X166282714Y-66183071D01*
X166282714Y-66040214D01*
X166330333Y-65944976D01*
X166425571Y-65897357D01*
X166949380Y-65897357D01*
X166425571Y-65897357D02*
X166330333Y-65849738D01*
X166282714Y-65754500D01*
X166282714Y-65611642D01*
X166330333Y-65516404D01*
X166425571Y-65468785D01*
X166949380Y-65468785D01*
X166949380Y-64992595D02*
X166282714Y-64992595D01*
X166377952Y-64992595D02*
X166330333Y-64944976D01*
X166282714Y-64849738D01*
X166282714Y-64706880D01*
X166330333Y-64611642D01*
X166425571Y-64564023D01*
X166949380Y-64564023D01*
X166425571Y-64564023D02*
X166330333Y-64516404D01*
X166282714Y-64421166D01*
X166282714Y-64278309D01*
X166330333Y-64183071D01*
X166425571Y-64135452D01*
X166949380Y-64135452D01*
D11*
X165227000Y-71247000D02*
X165227000Y-64262000D01*
X159258000Y-71247000D02*
X165813421Y-71247000D01*
X159258000Y-64262000D02*
X165813421Y-64262000D01*
X165227000Y-64262000D02*
X165813421Y-65388504D01*
X165227000Y-64262000D02*
X164640579Y-65388504D01*
X165227000Y-71247000D02*
X165813421Y-70120496D01*
X165227000Y-71247000D02*
X164640579Y-70120496D01*
D10*
X159980380Y-94487476D02*
X159980380Y-93868428D01*
X160361333Y-94201761D01*
X160361333Y-94058904D01*
X160408952Y-93963666D01*
X160456571Y-93916047D01*
X160551809Y-93868428D01*
X160789904Y-93868428D01*
X160885142Y-93916047D01*
X160932761Y-93963666D01*
X160980380Y-94058904D01*
X160980380Y-94344619D01*
X160932761Y-94439857D01*
X160885142Y-94487476D01*
X160408952Y-93297000D02*
X160361333Y-93392238D01*
X160313714Y-93439857D01*
X160218476Y-93487476D01*
X160170857Y-93487476D01*
X160075619Y-93439857D01*
X160028000Y-93392238D01*
X159980380Y-93297000D01*
X159980380Y-93106523D01*
X160028000Y-93011285D01*
X160075619Y-92963666D01*
X160170857Y-92916047D01*
X160218476Y-92916047D01*
X160313714Y-92963666D01*
X160361333Y-93011285D01*
X160408952Y-93106523D01*
X160408952Y-93297000D01*
X160456571Y-93392238D01*
X160504190Y-93439857D01*
X160599428Y-93487476D01*
X160789904Y-93487476D01*
X160885142Y-93439857D01*
X160932761Y-93392238D01*
X160980380Y-93297000D01*
X160980380Y-93106523D01*
X160932761Y-93011285D01*
X160885142Y-92963666D01*
X160789904Y-92916047D01*
X160599428Y-92916047D01*
X160504190Y-92963666D01*
X160456571Y-93011285D01*
X160408952Y-93106523D01*
X160932761Y-92439857D02*
X160980380Y-92439857D01*
X161075619Y-92487476D01*
X161123238Y-92535095D01*
X160980380Y-91487476D02*
X160980380Y-92058904D01*
X160980380Y-91773190D02*
X159980380Y-91773190D01*
X160123238Y-91868428D01*
X160218476Y-91963666D01*
X160266095Y-92058904D01*
X159980380Y-90868428D02*
X159980380Y-90773190D01*
X160028000Y-90677952D01*
X160075619Y-90630333D01*
X160170857Y-90582714D01*
X160361333Y-90535095D01*
X160599428Y-90535095D01*
X160789904Y-90582714D01*
X160885142Y-90630333D01*
X160932761Y-90677952D01*
X160980380Y-90773190D01*
X160980380Y-90868428D01*
X160932761Y-90963666D01*
X160885142Y-91011285D01*
X160789904Y-91058904D01*
X160599428Y-91106523D01*
X160361333Y-91106523D01*
X160170857Y-91058904D01*
X160075619Y-91011285D01*
X160028000Y-90963666D01*
X159980380Y-90868428D01*
X159980380Y-89916047D02*
X159980380Y-89820809D01*
X160028000Y-89725571D01*
X160075619Y-89677952D01*
X160170857Y-89630333D01*
X160361333Y-89582714D01*
X160599428Y-89582714D01*
X160789904Y-89630333D01*
X160885142Y-89677952D01*
X160932761Y-89725571D01*
X160980380Y-89820809D01*
X160980380Y-89916047D01*
X160932761Y-90011285D01*
X160885142Y-90058904D01*
X160789904Y-90106523D01*
X160599428Y-90154142D01*
X160361333Y-90154142D01*
X160170857Y-90106523D01*
X160075619Y-90058904D01*
X160028000Y-90011285D01*
X159980380Y-89916047D01*
X160980380Y-88392238D02*
X160313714Y-88392238D01*
X160408952Y-88392238D02*
X160361333Y-88344619D01*
X160313714Y-88249380D01*
X160313714Y-88106523D01*
X160361333Y-88011285D01*
X160456571Y-87963666D01*
X160980380Y-87963666D01*
X160456571Y-87963666D02*
X160361333Y-87916047D01*
X160313714Y-87820809D01*
X160313714Y-87677952D01*
X160361333Y-87582714D01*
X160456571Y-87535095D01*
X160980380Y-87535095D01*
X160980380Y-87058904D02*
X160313714Y-87058904D01*
X160408952Y-87058904D02*
X160361333Y-87011285D01*
X160313714Y-86916047D01*
X160313714Y-86773190D01*
X160361333Y-86677952D01*
X160456571Y-86630333D01*
X160980380Y-86630333D01*
X160456571Y-86630333D02*
X160361333Y-86582714D01*
X160313714Y-86487476D01*
X160313714Y-86344619D01*
X160361333Y-86249380D01*
X160456571Y-86201761D01*
X160980380Y-86201761D01*
D11*
X159258000Y-109347000D02*
X159258000Y-71247000D01*
X159258000Y-109347000D02*
X159844421Y-109347000D01*
X159258000Y-71247000D02*
X159844421Y-71247000D01*
X159258000Y-71247000D02*
X159844421Y-72373504D01*
X159258000Y-71247000D02*
X158671579Y-72373504D01*
X159258000Y-109347000D02*
X159844421Y-108220496D01*
X159258000Y-109347000D02*
X158671579Y-108220496D01*
D10*
X163155380Y-93916047D02*
X163155380Y-94392238D01*
X163631571Y-94439857D01*
X163583952Y-94392238D01*
X163536333Y-94297000D01*
X163536333Y-94058904D01*
X163583952Y-93963666D01*
X163631571Y-93916047D01*
X163726809Y-93868428D01*
X163964904Y-93868428D01*
X164060142Y-93916047D01*
X164107761Y-93963666D01*
X164155380Y-94058904D01*
X164155380Y-94297000D01*
X164107761Y-94392238D01*
X164060142Y-94439857D01*
X163250619Y-93487476D02*
X163203000Y-93439857D01*
X163155380Y-93344619D01*
X163155380Y-93106523D01*
X163203000Y-93011285D01*
X163250619Y-92963666D01*
X163345857Y-92916047D01*
X163441095Y-92916047D01*
X163583952Y-92963666D01*
X164155380Y-93535095D01*
X164155380Y-92916047D01*
X164107761Y-92439857D02*
X164155380Y-92439857D01*
X164250619Y-92487476D01*
X164298238Y-92535095D01*
X163155380Y-91820809D02*
X163155380Y-91725571D01*
X163203000Y-91630333D01*
X163250619Y-91582714D01*
X163345857Y-91535095D01*
X163536333Y-91487476D01*
X163774428Y-91487476D01*
X163964904Y-91535095D01*
X164060142Y-91582714D01*
X164107761Y-91630333D01*
X164155380Y-91725571D01*
X164155380Y-91820809D01*
X164107761Y-91916047D01*
X164060142Y-91963666D01*
X163964904Y-92011285D01*
X163774428Y-92058904D01*
X163536333Y-92058904D01*
X163345857Y-92011285D01*
X163250619Y-91963666D01*
X163203000Y-91916047D01*
X163155380Y-91820809D01*
X163155380Y-91154142D02*
X163155380Y-90487476D01*
X164155380Y-90916047D01*
X163155380Y-89916047D02*
X163155380Y-89820809D01*
X163203000Y-89725571D01*
X163250619Y-89677952D01*
X163345857Y-89630333D01*
X163536333Y-89582714D01*
X163774428Y-89582714D01*
X163964904Y-89630333D01*
X164060142Y-89677952D01*
X164107761Y-89725571D01*
X164155380Y-89820809D01*
X164155380Y-89916047D01*
X164107761Y-90011285D01*
X164060142Y-90058904D01*
X163964904Y-90106523D01*
X163774428Y-90154142D01*
X163536333Y-90154142D01*
X163345857Y-90106523D01*
X163250619Y-90058904D01*
X163203000Y-90011285D01*
X163155380Y-89916047D01*
X164155380Y-88392238D02*
X163488714Y-88392238D01*
X163583952Y-88392238D02*
X163536333Y-88344619D01*
X163488714Y-88249380D01*
X163488714Y-88106523D01*
X163536333Y-88011285D01*
X163631571Y-87963666D01*
X164155380Y-87963666D01*
X163631571Y-87963666D02*
X163536333Y-87916047D01*
X163488714Y-87820809D01*
X163488714Y-87677952D01*
X163536333Y-87582714D01*
X163631571Y-87535095D01*
X164155380Y-87535095D01*
X164155380Y-87058904D02*
X163488714Y-87058904D01*
X163583952Y-87058904D02*
X163536333Y-87011285D01*
X163488714Y-86916047D01*
X163488714Y-86773190D01*
X163536333Y-86677952D01*
X163631571Y-86630333D01*
X164155380Y-86630333D01*
X163631571Y-86630333D02*
X163536333Y-86582714D01*
X163488714Y-86487476D01*
X163488714Y-86344619D01*
X163536333Y-86249380D01*
X163631571Y-86201761D01*
X164155380Y-86201761D01*
D11*
X162433000Y-116332000D02*
X162433000Y-64262000D01*
X159258000Y-116332000D02*
X163019421Y-116332000D01*
X159258000Y-64262000D02*
X163019421Y-64262000D01*
X162433000Y-64262000D02*
X163019421Y-65388504D01*
X162433000Y-64262000D02*
X161846579Y-65388504D01*
X162433000Y-116332000D02*
X163019421Y-115205496D01*
X162433000Y-116332000D02*
X161846579Y-115205496D01*
D10*
X151828523Y-111085380D02*
X151352333Y-111085380D01*
X151304714Y-111561571D01*
X151352333Y-111513952D01*
X151447571Y-111466333D01*
X151685666Y-111466333D01*
X151780904Y-111513952D01*
X151828523Y-111561571D01*
X151876142Y-111656809D01*
X151876142Y-111894904D01*
X151828523Y-111990142D01*
X151780904Y-112037761D01*
X151685666Y-112085380D01*
X151447571Y-112085380D01*
X151352333Y-112037761D01*
X151304714Y-111990142D01*
X152161857Y-111085380D02*
X152495190Y-112085380D01*
X152828523Y-111085380D01*
X150749095Y-68588000D02*
X150653857Y-68540380D01*
X150511000Y-68540380D01*
X150368142Y-68588000D01*
X150272904Y-68683238D01*
X150225285Y-68778476D01*
X150177666Y-68968952D01*
X150177666Y-69111809D01*
X150225285Y-69302285D01*
X150272904Y-69397523D01*
X150368142Y-69492761D01*
X150511000Y-69540380D01*
X150606238Y-69540380D01*
X150749095Y-69492761D01*
X150796714Y-69445142D01*
X150796714Y-69111809D01*
X150606238Y-69111809D01*
X151225285Y-69540380D02*
X151225285Y-68540380D01*
X151796714Y-69540380D01*
X151796714Y-68540380D01*
X152272904Y-69540380D02*
X152272904Y-68540380D01*
X152511000Y-68540380D01*
X152653857Y-68588000D01*
X152749095Y-68683238D01*
X152796714Y-68778476D01*
X152844333Y-68968952D01*
X152844333Y-69111809D01*
X152796714Y-69302285D01*
X152749095Y-69397523D01*
X152653857Y-69492761D01*
X152511000Y-69540380D01*
X152272904Y-69540380D01*
X151828523Y-66000380D02*
X151352333Y-66000380D01*
X151304714Y-66476571D01*
X151352333Y-66428952D01*
X151447571Y-66381333D01*
X151685666Y-66381333D01*
X151780904Y-66428952D01*
X151828523Y-66476571D01*
X151876142Y-66571809D01*
X151876142Y-66809904D01*
X151828523Y-66905142D01*
X151780904Y-66952761D01*
X151685666Y-67000380D01*
X151447571Y-67000380D01*
X151352333Y-66952761D01*
X151304714Y-66905142D01*
X152161857Y-66000380D02*
X152495190Y-67000380D01*
X152828523Y-66000380D01*
X151130095Y-113673000D02*
X151034857Y-113625380D01*
X150892000Y-113625380D01*
X150749142Y-113673000D01*
X150653904Y-113768238D01*
X150606285Y-113863476D01*
X150558666Y-114053952D01*
X150558666Y-114196809D01*
X150606285Y-114387285D01*
X150653904Y-114482523D01*
X150749142Y-114577761D01*
X150892000Y-114625380D01*
X150987238Y-114625380D01*
X151130095Y-114577761D01*
X151177714Y-114530142D01*
X151177714Y-114196809D01*
X150987238Y-114196809D01*
X151606285Y-114625380D02*
X151606285Y-113625380D01*
X152177714Y-114625380D01*
X152177714Y-113625380D01*
X152653904Y-114625380D02*
X152653904Y-113625380D01*
X152892000Y-113625380D01*
X153034857Y-113673000D01*
X153130095Y-113768238D01*
X153177714Y-113863476D01*
X153225333Y-114053952D01*
X153225333Y-114196809D01*
X153177714Y-114387285D01*
X153130095Y-114482523D01*
X153034857Y-114577761D01*
X152892000Y-114625380D01*
X152653904Y-114625380D01*
D11*
X139954000Y-69977000D02*
G75*
G03X139954000Y-69977000I-5120000J0D01*
G01*
X134834000Y-64897000D02*
X134834000Y-75057000D01*
X134874000Y-64897000D02*
X134874000Y-75057000D01*
X134914000Y-64897000D02*
X134914000Y-75057000D01*
X134954000Y-64898000D02*
X134954000Y-75056000D01*
X134994000Y-64899000D02*
X134994000Y-75055000D01*
X135034000Y-64900000D02*
X135034000Y-75054000D01*
X135074000Y-64902000D02*
X135074000Y-75052000D01*
X135114000Y-64904000D02*
X135114000Y-75050000D01*
X135154000Y-64907000D02*
X135154000Y-75047000D01*
X135194000Y-64909000D02*
X135194000Y-75045000D01*
X135234000Y-64912000D02*
X135234000Y-75042000D01*
X135274000Y-64915000D02*
X135274000Y-75039000D01*
X135314000Y-64919000D02*
X135314000Y-75035000D01*
X135354000Y-64923000D02*
X135354000Y-75031000D01*
X135394000Y-64927000D02*
X135394000Y-75027000D01*
X135434000Y-64932000D02*
X135434000Y-75022000D01*
X135474000Y-64937000D02*
X135474000Y-75017000D01*
X135514000Y-64942000D02*
X135514000Y-75012000D01*
X135555000Y-64947000D02*
X135555000Y-75007000D01*
X135595000Y-64953000D02*
X135595000Y-75001000D01*
X135635000Y-64959000D02*
X135635000Y-74995000D01*
X135675000Y-64966000D02*
X135675000Y-74988000D01*
X135715000Y-64973000D02*
X135715000Y-74981000D01*
X135755000Y-64980000D02*
X135755000Y-74974000D01*
X135795000Y-64987000D02*
X135795000Y-74967000D01*
X135835000Y-64995000D02*
X135835000Y-74959000D01*
X135875000Y-65003000D02*
X135875000Y-74951000D01*
X135915000Y-65012000D02*
X135915000Y-74942000D01*
X135955000Y-65021000D02*
X135955000Y-74933000D01*
X135995000Y-65030000D02*
X135995000Y-74924000D01*
X136035000Y-65039000D02*
X136035000Y-74915000D01*
X136075000Y-65049000D02*
X136075000Y-74905000D01*
X136115000Y-65059000D02*
X136115000Y-68736000D01*
X136115000Y-71218000D02*
X136115000Y-74895000D01*
X136155000Y-65070000D02*
X136155000Y-68736000D01*
X136155000Y-71218000D02*
X136155000Y-74884000D01*
X136195000Y-65080000D02*
X136195000Y-68736000D01*
X136195000Y-71218000D02*
X136195000Y-74874000D01*
X136235000Y-65092000D02*
X136235000Y-68736000D01*
X136235000Y-71218000D02*
X136235000Y-74862000D01*
X136275000Y-65103000D02*
X136275000Y-68736000D01*
X136275000Y-71218000D02*
X136275000Y-74851000D01*
X136315000Y-65115000D02*
X136315000Y-68736000D01*
X136315000Y-71218000D02*
X136315000Y-74839000D01*
X136355000Y-65127000D02*
X136355000Y-68736000D01*
X136355000Y-71218000D02*
X136355000Y-74827000D01*
X136395000Y-65140000D02*
X136395000Y-68736000D01*
X136395000Y-71218000D02*
X136395000Y-74814000D01*
X136435000Y-65153000D02*
X136435000Y-68736000D01*
X136435000Y-71218000D02*
X136435000Y-74801000D01*
X136475000Y-65166000D02*
X136475000Y-68736000D01*
X136475000Y-71218000D02*
X136475000Y-74788000D01*
X136515000Y-65180000D02*
X136515000Y-68736000D01*
X136515000Y-71218000D02*
X136515000Y-74774000D01*
X136555000Y-65194000D02*
X136555000Y-68736000D01*
X136555000Y-71218000D02*
X136555000Y-74760000D01*
X136595000Y-65209000D02*
X136595000Y-68736000D01*
X136595000Y-71218000D02*
X136595000Y-74745000D01*
X136635000Y-65223000D02*
X136635000Y-68736000D01*
X136635000Y-71218000D02*
X136635000Y-74731000D01*
X136675000Y-65239000D02*
X136675000Y-68736000D01*
X136675000Y-71218000D02*
X136675000Y-74715000D01*
X136715000Y-65254000D02*
X136715000Y-68736000D01*
X136715000Y-71218000D02*
X136715000Y-74700000D01*
X136755000Y-65270000D02*
X136755000Y-68736000D01*
X136755000Y-71218000D02*
X136755000Y-74684000D01*
X136795000Y-65287000D02*
X136795000Y-68736000D01*
X136795000Y-71218000D02*
X136795000Y-74667000D01*
X136835000Y-65303000D02*
X136835000Y-68736000D01*
X136835000Y-71218000D02*
X136835000Y-74651000D01*
X136875000Y-65320000D02*
X136875000Y-68736000D01*
X136875000Y-71218000D02*
X136875000Y-74634000D01*
X136915000Y-65338000D02*
X136915000Y-68736000D01*
X136915000Y-71218000D02*
X136915000Y-74616000D01*
X136955000Y-65356000D02*
X136955000Y-68736000D01*
X136955000Y-71218000D02*
X136955000Y-74598000D01*
X136995000Y-65374000D02*
X136995000Y-68736000D01*
X136995000Y-71218000D02*
X136995000Y-74580000D01*
X137035000Y-65393000D02*
X137035000Y-68736000D01*
X137035000Y-71218000D02*
X137035000Y-74561000D01*
X137075000Y-65413000D02*
X137075000Y-68736000D01*
X137075000Y-71218000D02*
X137075000Y-74541000D01*
X137115000Y-65432000D02*
X137115000Y-68736000D01*
X137115000Y-71218000D02*
X137115000Y-74522000D01*
X137155000Y-65452000D02*
X137155000Y-68736000D01*
X137155000Y-71218000D02*
X137155000Y-74502000D01*
X137195000Y-65473000D02*
X137195000Y-68736000D01*
X137195000Y-71218000D02*
X137195000Y-74481000D01*
X137235000Y-65494000D02*
X137235000Y-68736000D01*
X137235000Y-71218000D02*
X137235000Y-74460000D01*
X137275000Y-65515000D02*
X137275000Y-68736000D01*
X137275000Y-71218000D02*
X137275000Y-74439000D01*
X137315000Y-65537000D02*
X137315000Y-68736000D01*
X137315000Y-71218000D02*
X137315000Y-74417000D01*
X137355000Y-65560000D02*
X137355000Y-68736000D01*
X137355000Y-71218000D02*
X137355000Y-74394000D01*
X137395000Y-65582000D02*
X137395000Y-68736000D01*
X137395000Y-71218000D02*
X137395000Y-74372000D01*
X137435000Y-65606000D02*
X137435000Y-68736000D01*
X137435000Y-71218000D02*
X137435000Y-74348000D01*
X137475000Y-65630000D02*
X137475000Y-68736000D01*
X137475000Y-71218000D02*
X137475000Y-74324000D01*
X137515000Y-65654000D02*
X137515000Y-68736000D01*
X137515000Y-71218000D02*
X137515000Y-74300000D01*
X137555000Y-65679000D02*
X137555000Y-68736000D01*
X137555000Y-71218000D02*
X137555000Y-74275000D01*
X137595000Y-65704000D02*
X137595000Y-68736000D01*
X137595000Y-71218000D02*
X137595000Y-74250000D01*
X137635000Y-65730000D02*
X137635000Y-68736000D01*
X137635000Y-71218000D02*
X137635000Y-74224000D01*
X137675000Y-65756000D02*
X137675000Y-68736000D01*
X137675000Y-71218000D02*
X137675000Y-74198000D01*
X137715000Y-65783000D02*
X137715000Y-68736000D01*
X137715000Y-71218000D02*
X137715000Y-74171000D01*
X137755000Y-65811000D02*
X137755000Y-68736000D01*
X137755000Y-71218000D02*
X137755000Y-74143000D01*
X137795000Y-65839000D02*
X137795000Y-68736000D01*
X137795000Y-71218000D02*
X137795000Y-74115000D01*
X137835000Y-65867000D02*
X137835000Y-68736000D01*
X137835000Y-71218000D02*
X137835000Y-74087000D01*
X137875000Y-65897000D02*
X137875000Y-68736000D01*
X137875000Y-71218000D02*
X137875000Y-74057000D01*
X137915000Y-65927000D02*
X137915000Y-68736000D01*
X137915000Y-71218000D02*
X137915000Y-74027000D01*
X137955000Y-65957000D02*
X137955000Y-68736000D01*
X137955000Y-71218000D02*
X137955000Y-73997000D01*
X137995000Y-65988000D02*
X137995000Y-68736000D01*
X137995000Y-71218000D02*
X137995000Y-73966000D01*
X138035000Y-66020000D02*
X138035000Y-68736000D01*
X138035000Y-71218000D02*
X138035000Y-73934000D01*
X138075000Y-66052000D02*
X138075000Y-68736000D01*
X138075000Y-71218000D02*
X138075000Y-73902000D01*
X138115000Y-66085000D02*
X138115000Y-68736000D01*
X138115000Y-71218000D02*
X138115000Y-73869000D01*
X138155000Y-66119000D02*
X138155000Y-68736000D01*
X138155000Y-71218000D02*
X138155000Y-73835000D01*
X138195000Y-66153000D02*
X138195000Y-68736000D01*
X138195000Y-71218000D02*
X138195000Y-73801000D01*
X138235000Y-66188000D02*
X138235000Y-68736000D01*
X138235000Y-71218000D02*
X138235000Y-73766000D01*
X138275000Y-66224000D02*
X138275000Y-68736000D01*
X138275000Y-71218000D02*
X138275000Y-73730000D01*
X138315000Y-66261000D02*
X138315000Y-68736000D01*
X138315000Y-71218000D02*
X138315000Y-73693000D01*
X138355000Y-66298000D02*
X138355000Y-68736000D01*
X138355000Y-71218000D02*
X138355000Y-73656000D01*
X138395000Y-66337000D02*
X138395000Y-68736000D01*
X138395000Y-71218000D02*
X138395000Y-73617000D01*
X138435000Y-66376000D02*
X138435000Y-68736000D01*
X138435000Y-71218000D02*
X138435000Y-73578000D01*
X138475000Y-66416000D02*
X138475000Y-68736000D01*
X138475000Y-71218000D02*
X138475000Y-73538000D01*
X138515000Y-66457000D02*
X138515000Y-68736000D01*
X138515000Y-71218000D02*
X138515000Y-73497000D01*
X138555000Y-66499000D02*
X138555000Y-68736000D01*
X138555000Y-71218000D02*
X138555000Y-73455000D01*
X138595000Y-66541000D02*
X138595000Y-73413000D01*
X138635000Y-66585000D02*
X138635000Y-73369000D01*
X138675000Y-66630000D02*
X138675000Y-73324000D01*
X138715000Y-66676000D02*
X138715000Y-73278000D01*
X138755000Y-66723000D02*
X138755000Y-73231000D01*
X138795000Y-66771000D02*
X138795000Y-73183000D01*
X138835000Y-66821000D02*
X138835000Y-73133000D01*
X138875000Y-66871000D02*
X138875000Y-73083000D01*
X138915000Y-66923000D02*
X138915000Y-73031000D01*
X138955000Y-66977000D02*
X138955000Y-72977000D01*
X138995000Y-67032000D02*
X138995000Y-72922000D01*
X139035000Y-67088000D02*
X139035000Y-72866000D01*
X139075000Y-67147000D02*
X139075000Y-72807000D01*
X139115000Y-67207000D02*
X139115000Y-72747000D01*
X139155000Y-67268000D02*
X139155000Y-72686000D01*
X139195000Y-67332000D02*
X139195000Y-72622000D01*
X139235000Y-67398000D02*
X139235000Y-72556000D01*
X139275000Y-67467000D02*
X139275000Y-72487000D01*
X139315000Y-67538000D02*
X139315000Y-72416000D01*
X139355000Y-67612000D02*
X139355000Y-72342000D01*
X139395000Y-67688000D02*
X139395000Y-72266000D01*
X139435000Y-67768000D02*
X139435000Y-72186000D01*
X139475000Y-67852000D02*
X139475000Y-72102000D01*
X139515000Y-67940000D02*
X139515000Y-72014000D01*
X139555000Y-68033000D02*
X139555000Y-71921000D01*
X139595000Y-68131000D02*
X139595000Y-71823000D01*
X139635000Y-68235000D02*
X139635000Y-71719000D01*
X139675000Y-68347000D02*
X139675000Y-71607000D01*
X139715000Y-68467000D02*
X139715000Y-71487000D01*
X139755000Y-68599000D02*
X139755000Y-71355000D01*
X139795000Y-68747000D02*
X139795000Y-71207000D01*
X139835000Y-68915000D02*
X139835000Y-71039000D01*
X139875000Y-69115000D02*
X139875000Y-70839000D01*
X139915000Y-69378000D02*
X139915000Y-70576000D01*
X129354354Y-67102000D02*
X130354354Y-67102000D01*
X129854354Y-66602000D02*
X129854354Y-67602000D01*
X147649000Y-68199000D02*
G75*
G03X147649000Y-68199000I-3270000J0D01*
G01*
X144379000Y-64969000D02*
X144379000Y-71429000D01*
X144419000Y-64969000D02*
X144419000Y-71429000D01*
X144459000Y-64969000D02*
X144459000Y-71429000D01*
X144499000Y-64971000D02*
X144499000Y-71427000D01*
X144539000Y-64972000D02*
X144539000Y-71426000D01*
X144579000Y-64975000D02*
X144579000Y-71423000D01*
X144619000Y-64977000D02*
X144619000Y-67159000D01*
X144619000Y-69239000D02*
X144619000Y-71421000D01*
X144659000Y-64981000D02*
X144659000Y-67159000D01*
X144659000Y-69239000D02*
X144659000Y-71417000D01*
X144699000Y-64984000D02*
X144699000Y-67159000D01*
X144699000Y-69239000D02*
X144699000Y-71414000D01*
X144739000Y-64988000D02*
X144739000Y-67159000D01*
X144739000Y-69239000D02*
X144739000Y-71410000D01*
X144779000Y-64993000D02*
X144779000Y-67159000D01*
X144779000Y-69239000D02*
X144779000Y-71405000D01*
X144819000Y-64998000D02*
X144819000Y-67159000D01*
X144819000Y-69239000D02*
X144819000Y-71400000D01*
X144859000Y-65004000D02*
X144859000Y-67159000D01*
X144859000Y-69239000D02*
X144859000Y-71394000D01*
X144899000Y-65010000D02*
X144899000Y-67159000D01*
X144899000Y-69239000D02*
X144899000Y-71388000D01*
X144939000Y-65017000D02*
X144939000Y-67159000D01*
X144939000Y-69239000D02*
X144939000Y-71381000D01*
X144979000Y-65024000D02*
X144979000Y-67159000D01*
X144979000Y-69239000D02*
X144979000Y-71374000D01*
X145019000Y-65032000D02*
X145019000Y-67159000D01*
X145019000Y-69239000D02*
X145019000Y-71366000D01*
X145059000Y-65040000D02*
X145059000Y-67159000D01*
X145059000Y-69239000D02*
X145059000Y-71358000D01*
X145100000Y-65049000D02*
X145100000Y-67159000D01*
X145100000Y-69239000D02*
X145100000Y-71349000D01*
X145140000Y-65058000D02*
X145140000Y-67159000D01*
X145140000Y-69239000D02*
X145140000Y-71340000D01*
X145180000Y-65068000D02*
X145180000Y-67159000D01*
X145180000Y-69239000D02*
X145180000Y-71330000D01*
X145220000Y-65078000D02*
X145220000Y-67159000D01*
X145220000Y-69239000D02*
X145220000Y-71320000D01*
X145260000Y-65089000D02*
X145260000Y-67159000D01*
X145260000Y-69239000D02*
X145260000Y-71309000D01*
X145300000Y-65101000D02*
X145300000Y-67159000D01*
X145300000Y-69239000D02*
X145300000Y-71297000D01*
X145340000Y-65113000D02*
X145340000Y-67159000D01*
X145340000Y-69239000D02*
X145340000Y-71285000D01*
X145380000Y-65125000D02*
X145380000Y-67159000D01*
X145380000Y-69239000D02*
X145380000Y-71273000D01*
X145420000Y-65138000D02*
X145420000Y-67159000D01*
X145420000Y-69239000D02*
X145420000Y-71260000D01*
X145460000Y-65152000D02*
X145460000Y-67159000D01*
X145460000Y-69239000D02*
X145460000Y-71246000D01*
X145500000Y-65166000D02*
X145500000Y-67159000D01*
X145500000Y-69239000D02*
X145500000Y-71232000D01*
X145540000Y-65181000D02*
X145540000Y-67159000D01*
X145540000Y-69239000D02*
X145540000Y-71217000D01*
X145580000Y-65197000D02*
X145580000Y-67159000D01*
X145580000Y-69239000D02*
X145580000Y-71201000D01*
X145620000Y-65213000D02*
X145620000Y-67159000D01*
X145620000Y-69239000D02*
X145620000Y-71185000D01*
X145660000Y-65229000D02*
X145660000Y-67159000D01*
X145660000Y-69239000D02*
X145660000Y-71169000D01*
X145700000Y-65247000D02*
X145700000Y-67159000D01*
X145700000Y-69239000D02*
X145700000Y-71151000D01*
X145740000Y-65265000D02*
X145740000Y-67159000D01*
X145740000Y-69239000D02*
X145740000Y-71133000D01*
X145780000Y-65283000D02*
X145780000Y-67159000D01*
X145780000Y-69239000D02*
X145780000Y-71115000D01*
X145820000Y-65303000D02*
X145820000Y-67159000D01*
X145820000Y-69239000D02*
X145820000Y-71095000D01*
X145860000Y-65323000D02*
X145860000Y-67159000D01*
X145860000Y-69239000D02*
X145860000Y-71075000D01*
X145900000Y-65343000D02*
X145900000Y-67159000D01*
X145900000Y-69239000D02*
X145900000Y-71055000D01*
X145940000Y-65365000D02*
X145940000Y-67159000D01*
X145940000Y-69239000D02*
X145940000Y-71033000D01*
X145980000Y-65387000D02*
X145980000Y-67159000D01*
X145980000Y-69239000D02*
X145980000Y-71011000D01*
X146020000Y-65409000D02*
X146020000Y-67159000D01*
X146020000Y-69239000D02*
X146020000Y-70989000D01*
X146060000Y-65433000D02*
X146060000Y-67159000D01*
X146060000Y-69239000D02*
X146060000Y-70965000D01*
X146100000Y-65457000D02*
X146100000Y-67159000D01*
X146100000Y-69239000D02*
X146100000Y-70941000D01*
X146140000Y-65483000D02*
X146140000Y-67159000D01*
X146140000Y-69239000D02*
X146140000Y-70915000D01*
X146180000Y-65509000D02*
X146180000Y-67159000D01*
X146180000Y-69239000D02*
X146180000Y-70889000D01*
X146220000Y-65535000D02*
X146220000Y-67159000D01*
X146220000Y-69239000D02*
X146220000Y-70863000D01*
X146260000Y-65563000D02*
X146260000Y-67159000D01*
X146260000Y-69239000D02*
X146260000Y-70835000D01*
X146300000Y-65592000D02*
X146300000Y-67159000D01*
X146300000Y-69239000D02*
X146300000Y-70806000D01*
X146340000Y-65621000D02*
X146340000Y-67159000D01*
X146340000Y-69239000D02*
X146340000Y-70777000D01*
X146380000Y-65651000D02*
X146380000Y-67159000D01*
X146380000Y-69239000D02*
X146380000Y-70747000D01*
X146420000Y-65683000D02*
X146420000Y-67159000D01*
X146420000Y-69239000D02*
X146420000Y-70715000D01*
X146460000Y-65715000D02*
X146460000Y-67159000D01*
X146460000Y-69239000D02*
X146460000Y-70683000D01*
X146500000Y-65749000D02*
X146500000Y-67159000D01*
X146500000Y-69239000D02*
X146500000Y-70649000D01*
X146540000Y-65783000D02*
X146540000Y-67159000D01*
X146540000Y-69239000D02*
X146540000Y-70615000D01*
X146580000Y-65819000D02*
X146580000Y-67159000D01*
X146580000Y-69239000D02*
X146580000Y-70579000D01*
X146620000Y-65856000D02*
X146620000Y-67159000D01*
X146620000Y-69239000D02*
X146620000Y-70542000D01*
X146660000Y-65894000D02*
X146660000Y-67159000D01*
X146660000Y-69239000D02*
X146660000Y-70504000D01*
X146700000Y-65934000D02*
X146700000Y-70464000D01*
X146740000Y-65975000D02*
X146740000Y-70423000D01*
X146780000Y-66017000D02*
X146780000Y-70381000D01*
X146820000Y-66062000D02*
X146820000Y-70336000D01*
X146860000Y-66107000D02*
X146860000Y-70291000D01*
X146900000Y-66155000D02*
X146900000Y-70243000D01*
X146940000Y-66204000D02*
X146940000Y-70194000D01*
X146980000Y-66255000D02*
X146980000Y-70143000D01*
X147020000Y-66309000D02*
X147020000Y-70089000D01*
X147060000Y-66365000D02*
X147060000Y-70033000D01*
X147100000Y-66423000D02*
X147100000Y-69975000D01*
X147140000Y-66485000D02*
X147140000Y-69913000D01*
X147180000Y-66549000D02*
X147180000Y-69849000D01*
X147220000Y-66618000D02*
X147220000Y-69780000D01*
X147260000Y-66690000D02*
X147260000Y-69708000D01*
X147300000Y-66767000D02*
X147300000Y-69631000D01*
X147340000Y-66849000D02*
X147340000Y-69549000D01*
X147380000Y-66937000D02*
X147380000Y-69461000D01*
X147420000Y-67034000D02*
X147420000Y-69364000D01*
X147460000Y-67140000D02*
X147460000Y-69258000D01*
X147500000Y-67259000D02*
X147500000Y-69139000D01*
X147540000Y-67397000D02*
X147540000Y-69001000D01*
X147580000Y-67566000D02*
X147580000Y-68832000D01*
X147620000Y-67797000D02*
X147620000Y-68601000D01*
X140878759Y-66360000D02*
X141508759Y-66360000D01*
X141193759Y-66045000D02*
X141193759Y-66675000D01*
X134458000Y-94457332D02*
X134458000Y-97397332D01*
X134698000Y-94457332D02*
X134698000Y-97397332D01*
X134578000Y-94457332D02*
X134578000Y-97397332D01*
X140138000Y-95927332D02*
X139118000Y-95927332D01*
X132658000Y-95927332D02*
X133678000Y-95927332D01*
X139118000Y-94457332D02*
X133678000Y-94457332D01*
X139118000Y-97397332D02*
X139118000Y-94457332D01*
X133678000Y-97397332D02*
X139118000Y-97397332D01*
X133678000Y-94457332D02*
X133678000Y-97397332D01*
X134458000Y-84636000D02*
X134458000Y-87576000D01*
X134698000Y-84636000D02*
X134698000Y-87576000D01*
X134578000Y-84636000D02*
X134578000Y-87576000D01*
X140138000Y-86106000D02*
X139118000Y-86106000D01*
X132658000Y-86106000D02*
X133678000Y-86106000D01*
X139118000Y-84636000D02*
X133678000Y-84636000D01*
X139118000Y-87576000D02*
X139118000Y-84636000D01*
X133678000Y-87576000D02*
X139118000Y-87576000D01*
X133678000Y-84636000D02*
X133678000Y-87576000D01*
X133678000Y-99368000D02*
X133678000Y-102308000D01*
X133678000Y-102308000D02*
X139118000Y-102308000D01*
X139118000Y-102308000D02*
X139118000Y-99368000D01*
X139118000Y-99368000D02*
X133678000Y-99368000D01*
X132658000Y-100838000D02*
X133678000Y-100838000D01*
X140138000Y-100838000D02*
X139118000Y-100838000D01*
X134578000Y-99368000D02*
X134578000Y-102308000D01*
X134698000Y-99368000D02*
X134698000Y-102308000D01*
X134458000Y-99368000D02*
X134458000Y-102308000D01*
X133678000Y-89546666D02*
X133678000Y-92486666D01*
X133678000Y-92486666D02*
X139118000Y-92486666D01*
X139118000Y-92486666D02*
X139118000Y-89546666D01*
X139118000Y-89546666D02*
X133678000Y-89546666D01*
X132658000Y-91016666D02*
X133678000Y-91016666D01*
X140138000Y-91016666D02*
X139118000Y-91016666D01*
X134578000Y-89546666D02*
X134578000Y-92486666D01*
X134698000Y-89546666D02*
X134698000Y-92486666D01*
X134458000Y-89546666D02*
X134458000Y-92486666D01*
X146792000Y-98277000D02*
X146792000Y-101367000D01*
X151852000Y-99822000D02*
G75*
G03X151852000Y-99822000I-2500000J0D01*
G01*
X152342000Y-99821538D02*
G75*
G02X146792000Y-101366830I-2990000J-462D01*
G01*
X152342000Y-99822462D02*
G75*
G03X146792000Y-98277170I-2990000J462D01*
G01*
X152342000Y-78994462D02*
G75*
G03X146792000Y-77449170I-2990000J462D01*
G01*
X152342000Y-78993538D02*
G75*
G02X146792000Y-80538830I-2990000J-462D01*
G01*
X151852000Y-78994000D02*
G75*
G03X151852000Y-78994000I-2500000J0D01*
G01*
X146792000Y-77449000D02*
X146792000Y-80539000D01*
X138710000Y-114074000D02*
X129710000Y-114074000D01*
X129710000Y-114074000D02*
X129710000Y-104874000D01*
X129710000Y-104874000D02*
X144310000Y-104874000D01*
X144310000Y-104874000D02*
X144310000Y-107674000D01*
X144310000Y-111274000D02*
X144310000Y-114074000D01*
X144310000Y-114074000D02*
X142310000Y-114074000D01*
X142810000Y-104634000D02*
X144550000Y-104634000D01*
X144550000Y-104634000D02*
X144550000Y-106374000D01*
X153483000Y-65214000D02*
X154813000Y-65214000D01*
X153483000Y-66544000D02*
X153483000Y-65214000D01*
X156083000Y-65214000D02*
X158683000Y-65214000D01*
X156083000Y-67814000D02*
X156083000Y-65214000D01*
X153483000Y-67814000D02*
X156083000Y-67814000D01*
X158683000Y-65214000D02*
X158683000Y-70414000D01*
X153483000Y-67814000D02*
X153483000Y-70414000D01*
X153483000Y-70414000D02*
X158683000Y-70414000D01*
X153483000Y-115376000D02*
X158683000Y-115376000D01*
X153483000Y-112776000D02*
X153483000Y-115376000D01*
X158683000Y-110176000D02*
X158683000Y-115376000D01*
X153483000Y-112776000D02*
X156083000Y-112776000D01*
X156083000Y-112776000D02*
X156083000Y-110176000D01*
X156083000Y-110176000D02*
X158683000Y-110176000D01*
X153483000Y-111506000D02*
X153483000Y-110176000D01*
X153483000Y-110176000D02*
X154813000Y-110176000D01*
X148109000Y-113252000D02*
X148439000Y-113252000D01*
X148109000Y-106712000D02*
X148109000Y-113252000D01*
X148439000Y-106712000D02*
X148109000Y-106712000D01*
X150849000Y-113252000D02*
X150519000Y-113252000D01*
X150849000Y-106712000D02*
X150849000Y-113252000D01*
X150519000Y-106712000D02*
X150849000Y-106712000D01*
X144423000Y-74581000D02*
X144753000Y-74581000D01*
X144753000Y-74581000D02*
X144753000Y-81121000D01*
X144753000Y-81121000D02*
X144423000Y-81121000D01*
X142343000Y-74581000D02*
X142013000Y-74581000D01*
X142013000Y-74581000D02*
X142013000Y-81121000D01*
X142013000Y-81121000D02*
X142343000Y-81121000D01*
D12*
X152468000Y-83488000D02*
X152468000Y-83988000D01*
X152468000Y-83488000D02*
X151968000Y-83488000D01*
X152468000Y-95388000D02*
X152468000Y-94888000D01*
X152468000Y-95388000D02*
X151968000Y-95388000D01*
X148268000Y-95388000D02*
X148268000Y-94888000D01*
X148268000Y-95388000D02*
X148768000Y-95388000D01*
X148268000Y-83488000D02*
X148768000Y-83488000D01*
X148268000Y-83488000D02*
X148268000Y-83988000D01*
D11*
X129754000Y-77248000D02*
X139994000Y-77248000D01*
X129754000Y-81889000D02*
X139994000Y-81889000D01*
X129754000Y-77248000D02*
X129754000Y-81889000D01*
X139994000Y-77248000D02*
X139994000Y-81889000D01*
X129754000Y-78758000D02*
X139994000Y-78758000D01*
X133024000Y-77248000D02*
X133024000Y-78758000D01*
X136725000Y-77248000D02*
X136725000Y-78758000D01*
D10*
X139279333Y-74652142D02*
X139231714Y-74699761D01*
X139088857Y-74747380D01*
X138993619Y-74747380D01*
X138850761Y-74699761D01*
X138755523Y-74604523D01*
X138707904Y-74509285D01*
X138660285Y-74318809D01*
X138660285Y-74175952D01*
X138707904Y-73985476D01*
X138755523Y-73890238D01*
X138850761Y-73795000D01*
X138993619Y-73747380D01*
X139088857Y-73747380D01*
X139231714Y-73795000D01*
X139279333Y-73842619D01*
X140231714Y-74747380D02*
X139660285Y-74747380D01*
X139946000Y-74747380D02*
X139946000Y-73747380D01*
X139850761Y-73890238D01*
X139755523Y-73985476D01*
X139660285Y-74033095D01*
X147788333Y-71223142D02*
X147740714Y-71270761D01*
X147597857Y-71318380D01*
X147502619Y-71318380D01*
X147359761Y-71270761D01*
X147264523Y-71175523D01*
X147216904Y-71080285D01*
X147169285Y-70889809D01*
X147169285Y-70746952D01*
X147216904Y-70556476D01*
X147264523Y-70461238D01*
X147359761Y-70366000D01*
X147502619Y-70318380D01*
X147597857Y-70318380D01*
X147740714Y-70366000D01*
X147788333Y-70413619D01*
X148169285Y-70413619D02*
X148216904Y-70366000D01*
X148312142Y-70318380D01*
X148550238Y-70318380D01*
X148645476Y-70366000D01*
X148693095Y-70413619D01*
X148740714Y-70508857D01*
X148740714Y-70604095D01*
X148693095Y-70746952D01*
X148121666Y-71318380D01*
X148740714Y-71318380D01*
X135659904Y-93909712D02*
X135659904Y-92909712D01*
X135898000Y-92909712D01*
X136040857Y-92957332D01*
X136136095Y-93052570D01*
X136183714Y-93147808D01*
X136231333Y-93338284D01*
X136231333Y-93481141D01*
X136183714Y-93671617D01*
X136136095Y-93766855D01*
X136040857Y-93862093D01*
X135898000Y-93909712D01*
X135659904Y-93909712D01*
X137183714Y-93909712D02*
X136612285Y-93909712D01*
X136898000Y-93909712D02*
X136898000Y-92909712D01*
X136802761Y-93052570D01*
X136707523Y-93147808D01*
X136612285Y-93195427D01*
X131056095Y-94279712D02*
X131056095Y-93279712D01*
X131627523Y-94279712D02*
X131198952Y-93708284D01*
X131627523Y-93279712D02*
X131056095Y-93851141D01*
X135659904Y-84088380D02*
X135659904Y-83088380D01*
X135898000Y-83088380D01*
X136040857Y-83136000D01*
X136136095Y-83231238D01*
X136183714Y-83326476D01*
X136231333Y-83516952D01*
X136231333Y-83659809D01*
X136183714Y-83850285D01*
X136136095Y-83945523D01*
X136040857Y-84040761D01*
X135898000Y-84088380D01*
X135659904Y-84088380D01*
X136612285Y-83183619D02*
X136659904Y-83136000D01*
X136755142Y-83088380D01*
X136993238Y-83088380D01*
X137088476Y-83136000D01*
X137136095Y-83183619D01*
X137183714Y-83278857D01*
X137183714Y-83374095D01*
X137136095Y-83516952D01*
X136564666Y-84088380D01*
X137183714Y-84088380D01*
X131056095Y-84458380D02*
X131056095Y-83458380D01*
X131627523Y-84458380D02*
X131198952Y-83886952D01*
X131627523Y-83458380D02*
X131056095Y-84029809D01*
X135659904Y-98820380D02*
X135659904Y-97820380D01*
X135898000Y-97820380D01*
X136040857Y-97868000D01*
X136136095Y-97963238D01*
X136183714Y-98058476D01*
X136231333Y-98248952D01*
X136231333Y-98391809D01*
X136183714Y-98582285D01*
X136136095Y-98677523D01*
X136040857Y-98772761D01*
X135898000Y-98820380D01*
X135659904Y-98820380D01*
X136564666Y-97820380D02*
X137183714Y-97820380D01*
X136850380Y-98201333D01*
X136993238Y-98201333D01*
X137088476Y-98248952D01*
X137136095Y-98296571D01*
X137183714Y-98391809D01*
X137183714Y-98629904D01*
X137136095Y-98725142D01*
X137088476Y-98772761D01*
X136993238Y-98820380D01*
X136707523Y-98820380D01*
X136612285Y-98772761D01*
X136564666Y-98725142D01*
X131056095Y-99190380D02*
X131056095Y-98190380D01*
X131627523Y-99190380D02*
X131198952Y-98618952D01*
X131627523Y-98190380D02*
X131056095Y-98761809D01*
X135659904Y-88999046D02*
X135659904Y-87999046D01*
X135898000Y-87999046D01*
X136040857Y-88046666D01*
X136136095Y-88141904D01*
X136183714Y-88237142D01*
X136231333Y-88427618D01*
X136231333Y-88570475D01*
X136183714Y-88760951D01*
X136136095Y-88856189D01*
X136040857Y-88951427D01*
X135898000Y-88999046D01*
X135659904Y-88999046D01*
X137088476Y-88332380D02*
X137088476Y-88999046D01*
X136850380Y-87951427D02*
X136612285Y-88665713D01*
X137231333Y-88665713D01*
X131056095Y-89369046D02*
X131056095Y-88369046D01*
X131627523Y-89369046D02*
X131198952Y-88797618D01*
X131627523Y-88369046D02*
X131056095Y-88940475D01*
X148613904Y-96314380D02*
X148613904Y-95314380D01*
X148852000Y-95314380D01*
X148994857Y-95362000D01*
X149090095Y-95457238D01*
X149137714Y-95552476D01*
X149185333Y-95742952D01*
X149185333Y-95885809D01*
X149137714Y-96076285D01*
X149090095Y-96171523D01*
X148994857Y-96266761D01*
X148852000Y-96314380D01*
X148613904Y-96314380D01*
X150090095Y-95314380D02*
X149613904Y-95314380D01*
X149566285Y-95790571D01*
X149613904Y-95742952D01*
X149709142Y-95695333D01*
X149947238Y-95695333D01*
X150042476Y-95742952D01*
X150090095Y-95790571D01*
X150137714Y-95885809D01*
X150137714Y-96123904D01*
X150090095Y-96219142D01*
X150042476Y-96266761D01*
X149947238Y-96314380D01*
X149709142Y-96314380D01*
X149613904Y-96266761D01*
X149566285Y-96219142D01*
X148613904Y-75486380D02*
X148613904Y-74486380D01*
X148852000Y-74486380D01*
X148994857Y-74534000D01*
X149090095Y-74629238D01*
X149137714Y-74724476D01*
X149185333Y-74914952D01*
X149185333Y-75057809D01*
X149137714Y-75248285D01*
X149090095Y-75343523D01*
X148994857Y-75438761D01*
X148852000Y-75486380D01*
X148613904Y-75486380D01*
X150042476Y-74486380D02*
X149852000Y-74486380D01*
X149756761Y-74534000D01*
X149709142Y-74581619D01*
X149613904Y-74724476D01*
X149566285Y-74914952D01*
X149566285Y-75295904D01*
X149613904Y-75391142D01*
X149661523Y-75438761D01*
X149756761Y-75486380D01*
X149947238Y-75486380D01*
X150042476Y-75438761D01*
X150090095Y-75391142D01*
X150137714Y-75295904D01*
X150137714Y-75057809D01*
X150090095Y-74962571D01*
X150042476Y-74914952D01*
X149947238Y-74867333D01*
X149756761Y-74867333D01*
X149661523Y-74914952D01*
X149613904Y-74962571D01*
X149566285Y-75057809D01*
X134726666Y-114676380D02*
X134726666Y-115390666D01*
X134679047Y-115533523D01*
X134583809Y-115628761D01*
X134440952Y-115676380D01*
X134345714Y-115676380D01*
X135726666Y-115676380D02*
X135155238Y-115676380D01*
X135440952Y-115676380D02*
X135440952Y-114676380D01*
X135345714Y-114819238D01*
X135250476Y-114914476D01*
X135155238Y-114962095D01*
X151558666Y-67270380D02*
X151558666Y-67984666D01*
X151511047Y-68127523D01*
X151415809Y-68222761D01*
X151272952Y-68270380D01*
X151177714Y-68270380D01*
X151987238Y-67365619D02*
X152034857Y-67318000D01*
X152130095Y-67270380D01*
X152368190Y-67270380D01*
X152463428Y-67318000D01*
X152511047Y-67365619D01*
X152558666Y-67460857D01*
X152558666Y-67556095D01*
X152511047Y-67698952D01*
X151939619Y-68270380D01*
X152558666Y-68270380D01*
X151558666Y-112355380D02*
X151558666Y-113069666D01*
X151511047Y-113212523D01*
X151415809Y-113307761D01*
X151272952Y-113355380D01*
X151177714Y-113355380D01*
X151939619Y-112355380D02*
X152558666Y-112355380D01*
X152225333Y-112736333D01*
X152368190Y-112736333D01*
X152463428Y-112783952D01*
X152511047Y-112831571D01*
X152558666Y-112926809D01*
X152558666Y-113164904D01*
X152511047Y-113260142D01*
X152463428Y-113307761D01*
X152368190Y-113355380D01*
X152082476Y-113355380D01*
X151987238Y-113307761D01*
X151939619Y-113260142D01*
X152301380Y-107481666D02*
X151825190Y-107815000D01*
X152301380Y-108053095D02*
X151301380Y-108053095D01*
X151301380Y-107672142D01*
X151349000Y-107576904D01*
X151396619Y-107529285D01*
X151491857Y-107481666D01*
X151634714Y-107481666D01*
X151729952Y-107529285D01*
X151777571Y-107576904D01*
X151825190Y-107672142D01*
X151825190Y-108053095D01*
X152301380Y-106529285D02*
X152301380Y-107100714D01*
X152301380Y-106815000D02*
X151301380Y-106815000D01*
X151444238Y-106910238D01*
X151539476Y-107005476D01*
X151587095Y-107100714D01*
X146205380Y-78017666D02*
X145729190Y-78351000D01*
X146205380Y-78589095D02*
X145205380Y-78589095D01*
X145205380Y-78208142D01*
X145253000Y-78112904D01*
X145300619Y-78065285D01*
X145395857Y-78017666D01*
X145538714Y-78017666D01*
X145633952Y-78065285D01*
X145681571Y-78112904D01*
X145729190Y-78208142D01*
X145729190Y-78589095D01*
X145300619Y-77636714D02*
X145253000Y-77589095D01*
X145205380Y-77493857D01*
X145205380Y-77255761D01*
X145253000Y-77160523D01*
X145300619Y-77112904D01*
X145395857Y-77065285D01*
X145491095Y-77065285D01*
X145633952Y-77112904D01*
X146205380Y-77684333D01*
X146205380Y-77065285D01*
X147752761Y-90631333D02*
X147800380Y-90488476D01*
X147800380Y-90250380D01*
X147752761Y-90155142D01*
X147705142Y-90107523D01*
X147609904Y-90059904D01*
X147514666Y-90059904D01*
X147419428Y-90107523D01*
X147371809Y-90155142D01*
X147324190Y-90250380D01*
X147276571Y-90440857D01*
X147228952Y-90536095D01*
X147181333Y-90583714D01*
X147086095Y-90631333D01*
X146990857Y-90631333D01*
X146895619Y-90583714D01*
X146848000Y-90536095D01*
X146800380Y-90440857D01*
X146800380Y-90202761D01*
X146848000Y-90059904D01*
X146800380Y-89726571D02*
X147800380Y-89488476D01*
X147086095Y-89298000D01*
X147800380Y-89107523D01*
X146800380Y-88869428D01*
X147800380Y-87964666D02*
X147800380Y-88536095D01*
X147800380Y-88250380D02*
X146800380Y-88250380D01*
X146943238Y-88345619D01*
X147038476Y-88440857D01*
X147086095Y-88536095D01*
X130048095Y-75779380D02*
X130048095Y-76588904D01*
X130095714Y-76684142D01*
X130143333Y-76731761D01*
X130238571Y-76779380D01*
X130429047Y-76779380D01*
X130524285Y-76731761D01*
X130571904Y-76684142D01*
X130619523Y-76588904D01*
X130619523Y-75779380D01*
X131619523Y-76779380D02*
X131048095Y-76779380D01*
X131333809Y-76779380D02*
X131333809Y-75779380D01*
X131238571Y-75922238D01*
X131143333Y-76017476D01*
X131048095Y-76065095D01*
M02*
