G04 #@! TF.GenerationSoftware,KiCad,Pcbnew,(5.1.4)-1*
G04 #@! TF.CreationDate,2019-09-17T14:56:49+03:00*
G04 #@! TF.ProjectId,Project_1_Breadboard_power_supply,50726f6a-6563-4745-9f31-5f4272656164,v1*
G04 #@! TF.SameCoordinates,Original*
G04 #@! TF.FileFunction,Soldermask,Bot*
G04 #@! TF.FilePolarity,Negative*
%FSLAX46Y46*%
G04 Gerber Fmt 4.6, Leading zero omitted, Abs format (unit mm)*
G04 Created by KiCad (PCBNEW (5.1.4)-1) date 2019-09-17 14:56:49*
%MOMM*%
%LPD*%
G04 APERTURE LIST*
%ADD10C,0.100000*%
G04 APERTURE END LIST*
D10*
G36*
X140904072Y-112874918D02*
G01*
X141149939Y-112976759D01*
X141261328Y-113051187D01*
X141371211Y-113124609D01*
X141559391Y-113312789D01*
X141707242Y-113534063D01*
X141809082Y-113779928D01*
X141861000Y-114040937D01*
X141861000Y-114307063D01*
X141809082Y-114568072D01*
X141713521Y-114798779D01*
X141707241Y-114813939D01*
X141559390Y-115035212D01*
X141371212Y-115223390D01*
X141149939Y-115371241D01*
X141149938Y-115371242D01*
X141149937Y-115371242D01*
X140904072Y-115473082D01*
X140643063Y-115525000D01*
X140376937Y-115525000D01*
X140115928Y-115473082D01*
X139870063Y-115371242D01*
X139870062Y-115371242D01*
X139870061Y-115371241D01*
X139648788Y-115223390D01*
X139460610Y-115035212D01*
X139312759Y-114813939D01*
X139306480Y-114798779D01*
X139210918Y-114568072D01*
X139159000Y-114307063D01*
X139159000Y-114040937D01*
X139210918Y-113779928D01*
X139312758Y-113534063D01*
X139460609Y-113312789D01*
X139648789Y-113124609D01*
X139758672Y-113051187D01*
X139870061Y-112976759D01*
X140115928Y-112874918D01*
X140376937Y-112823000D01*
X140643063Y-112823000D01*
X140904072Y-112874918D01*
X140904072Y-112874918D01*
G37*
G36*
X157463442Y-113151518D02*
G01*
X157529627Y-113158037D01*
X157699466Y-113209557D01*
X157855991Y-113293222D01*
X157879832Y-113312788D01*
X157993186Y-113405814D01*
X158076448Y-113507271D01*
X158105778Y-113543009D01*
X158189443Y-113699534D01*
X158240963Y-113869373D01*
X158258359Y-114046000D01*
X158240963Y-114222627D01*
X158189443Y-114392466D01*
X158105778Y-114548991D01*
X158076448Y-114584729D01*
X157993186Y-114686186D01*
X157891729Y-114769448D01*
X157855991Y-114798778D01*
X157699466Y-114882443D01*
X157529627Y-114933963D01*
X157463442Y-114940482D01*
X157397260Y-114947000D01*
X157308740Y-114947000D01*
X157242558Y-114940482D01*
X157176373Y-114933963D01*
X157006534Y-114882443D01*
X156850009Y-114798778D01*
X156814271Y-114769448D01*
X156712814Y-114686186D01*
X156629552Y-114584729D01*
X156600222Y-114548991D01*
X156516557Y-114392466D01*
X156465037Y-114222627D01*
X156447641Y-114046000D01*
X156465037Y-113869373D01*
X156516557Y-113699534D01*
X156600222Y-113543009D01*
X156629552Y-113507271D01*
X156712814Y-113405814D01*
X156826168Y-113312788D01*
X156850009Y-113293222D01*
X157006534Y-113209557D01*
X157176373Y-113158037D01*
X157242558Y-113151518D01*
X157308740Y-113145000D01*
X157397260Y-113145000D01*
X157463442Y-113151518D01*
X157463442Y-113151518D01*
G37*
G36*
X154923442Y-113151518D02*
G01*
X154989627Y-113158037D01*
X155159466Y-113209557D01*
X155315991Y-113293222D01*
X155339832Y-113312788D01*
X155453186Y-113405814D01*
X155536448Y-113507271D01*
X155565778Y-113543009D01*
X155649443Y-113699534D01*
X155700963Y-113869373D01*
X155718359Y-114046000D01*
X155700963Y-114222627D01*
X155649443Y-114392466D01*
X155565778Y-114548991D01*
X155536448Y-114584729D01*
X155453186Y-114686186D01*
X155351729Y-114769448D01*
X155315991Y-114798778D01*
X155159466Y-114882443D01*
X154989627Y-114933963D01*
X154923442Y-114940482D01*
X154857260Y-114947000D01*
X154768740Y-114947000D01*
X154702558Y-114940482D01*
X154636373Y-114933963D01*
X154466534Y-114882443D01*
X154310009Y-114798778D01*
X154274271Y-114769448D01*
X154172814Y-114686186D01*
X154089552Y-114584729D01*
X154060222Y-114548991D01*
X153976557Y-114392466D01*
X153925037Y-114222627D01*
X153907641Y-114046000D01*
X153925037Y-113869373D01*
X153976557Y-113699534D01*
X154060222Y-113543009D01*
X154089552Y-113507271D01*
X154172814Y-113405814D01*
X154286168Y-113312788D01*
X154310009Y-113293222D01*
X154466534Y-113209557D01*
X154636373Y-113158037D01*
X154702558Y-113151518D01*
X154768740Y-113145000D01*
X154857260Y-113145000D01*
X154923442Y-113151518D01*
X154923442Y-113151518D01*
G37*
G36*
X149645823Y-112953313D02*
G01*
X149806242Y-113001976D01*
X149938906Y-113072886D01*
X149954078Y-113080996D01*
X150083659Y-113187341D01*
X150190004Y-113316922D01*
X150190005Y-113316924D01*
X150269024Y-113464758D01*
X150317687Y-113625177D01*
X150334117Y-113792000D01*
X150317687Y-113958823D01*
X150269024Y-114119242D01*
X150198114Y-114251906D01*
X150190004Y-114267078D01*
X150083659Y-114396659D01*
X149954078Y-114503004D01*
X149954076Y-114503005D01*
X149806242Y-114582024D01*
X149645823Y-114630687D01*
X149520804Y-114643000D01*
X149437196Y-114643000D01*
X149312177Y-114630687D01*
X149151758Y-114582024D01*
X149003924Y-114503005D01*
X149003922Y-114503004D01*
X148874341Y-114396659D01*
X148767996Y-114267078D01*
X148759886Y-114251906D01*
X148688976Y-114119242D01*
X148640313Y-113958823D01*
X148623883Y-113792000D01*
X148640313Y-113625177D01*
X148688976Y-113464758D01*
X148767995Y-113316924D01*
X148767996Y-113316922D01*
X148874341Y-113187341D01*
X149003922Y-113080996D01*
X149019094Y-113072886D01*
X149151758Y-113001976D01*
X149312177Y-112953313D01*
X149437196Y-112941000D01*
X149520804Y-112941000D01*
X149645823Y-112953313D01*
X149645823Y-112953313D01*
G37*
G36*
X157463443Y-110611519D02*
G01*
X157529627Y-110618037D01*
X157699466Y-110669557D01*
X157699468Y-110669558D01*
X157777728Y-110711389D01*
X157855991Y-110753222D01*
X157880190Y-110773082D01*
X157993186Y-110865814D01*
X158076448Y-110967271D01*
X158105778Y-111003009D01*
X158189443Y-111159534D01*
X158240963Y-111329373D01*
X158258359Y-111506000D01*
X158240963Y-111682627D01*
X158189443Y-111852466D01*
X158105778Y-112008991D01*
X158076448Y-112044729D01*
X157993186Y-112146186D01*
X157891729Y-112229448D01*
X157855991Y-112258778D01*
X157699466Y-112342443D01*
X157529627Y-112393963D01*
X157463443Y-112400481D01*
X157397260Y-112407000D01*
X157308740Y-112407000D01*
X157242557Y-112400481D01*
X157176373Y-112393963D01*
X157006534Y-112342443D01*
X156850009Y-112258778D01*
X156814271Y-112229448D01*
X156712814Y-112146186D01*
X156629552Y-112044729D01*
X156600222Y-112008991D01*
X156516557Y-111852466D01*
X156465037Y-111682627D01*
X156447641Y-111506000D01*
X156465037Y-111329373D01*
X156516557Y-111159534D01*
X156600222Y-111003009D01*
X156629552Y-110967271D01*
X156712814Y-110865814D01*
X156825810Y-110773082D01*
X156850009Y-110753222D01*
X156928272Y-110711389D01*
X157006532Y-110669558D01*
X157006534Y-110669557D01*
X157176373Y-110618037D01*
X157242557Y-110611519D01*
X157308740Y-110605000D01*
X157397260Y-110605000D01*
X157463443Y-110611519D01*
X157463443Y-110611519D01*
G37*
G36*
X155714000Y-112407000D02*
G01*
X153912000Y-112407000D01*
X153912000Y-110605000D01*
X155714000Y-110605000D01*
X155714000Y-112407000D01*
X155714000Y-112407000D01*
G37*
G36*
X144861000Y-110825000D02*
G01*
X142159000Y-110825000D01*
X142159000Y-108123000D01*
X144861000Y-108123000D01*
X144861000Y-110825000D01*
X144861000Y-110825000D01*
G37*
G36*
X137904072Y-108174918D02*
G01*
X138149939Y-108276759D01*
X138371212Y-108424610D01*
X138559390Y-108612788D01*
X138707241Y-108834061D01*
X138809082Y-109079928D01*
X138861000Y-109340938D01*
X138861000Y-109607062D01*
X138809082Y-109868072D01*
X138707241Y-110113939D01*
X138559390Y-110335212D01*
X138371212Y-110523390D01*
X138149939Y-110671241D01*
X138149938Y-110671242D01*
X138149937Y-110671242D01*
X137904072Y-110773082D01*
X137643063Y-110825000D01*
X137376937Y-110825000D01*
X137115928Y-110773082D01*
X136870063Y-110671242D01*
X136870062Y-110671242D01*
X136870061Y-110671241D01*
X136648788Y-110523390D01*
X136460610Y-110335212D01*
X136312759Y-110113939D01*
X136210918Y-109868072D01*
X136159000Y-109607062D01*
X136159000Y-109340938D01*
X136210918Y-109079928D01*
X136312759Y-108834061D01*
X136460610Y-108612788D01*
X136648788Y-108424610D01*
X136870061Y-108276759D01*
X137115928Y-108174918D01*
X137376937Y-108123000D01*
X137643063Y-108123000D01*
X137904072Y-108174918D01*
X137904072Y-108174918D01*
G37*
G36*
X149727228Y-105353703D02*
G01*
X149882100Y-105417853D01*
X150021481Y-105510985D01*
X150140015Y-105629519D01*
X150233147Y-105768900D01*
X150297297Y-105923772D01*
X150330000Y-106088184D01*
X150330000Y-106255816D01*
X150297297Y-106420228D01*
X150233147Y-106575100D01*
X150140015Y-106714481D01*
X150021481Y-106833015D01*
X149882100Y-106926147D01*
X149727228Y-106990297D01*
X149562816Y-107023000D01*
X149395184Y-107023000D01*
X149230772Y-106990297D01*
X149075900Y-106926147D01*
X148936519Y-106833015D01*
X148817985Y-106714481D01*
X148724853Y-106575100D01*
X148660703Y-106420228D01*
X148628000Y-106255816D01*
X148628000Y-106088184D01*
X148660703Y-105923772D01*
X148724853Y-105768900D01*
X148817985Y-105629519D01*
X148936519Y-105510985D01*
X149075900Y-105417853D01*
X149230772Y-105353703D01*
X149395184Y-105321000D01*
X149562816Y-105321000D01*
X149727228Y-105353703D01*
X149727228Y-105353703D01*
G37*
G36*
X141647271Y-99698103D02*
G01*
X141703635Y-99703654D01*
X141920600Y-99769470D01*
X141920602Y-99769471D01*
X142120555Y-99876347D01*
X142295818Y-100020182D01*
X142439653Y-100195445D01*
X142546529Y-100395398D01*
X142546530Y-100395400D01*
X142612346Y-100612365D01*
X142624568Y-100736454D01*
X142634569Y-100838000D01*
X142612346Y-101063634D01*
X142546529Y-101280602D01*
X142439653Y-101480555D01*
X142295818Y-101655818D01*
X142120555Y-101799653D01*
X141920602Y-101906529D01*
X141920600Y-101906530D01*
X141703635Y-101972346D01*
X141647271Y-101977897D01*
X141534545Y-101989000D01*
X141421455Y-101989000D01*
X141308729Y-101977897D01*
X141252365Y-101972346D01*
X141035400Y-101906530D01*
X141035398Y-101906529D01*
X140835445Y-101799653D01*
X140660182Y-101655818D01*
X140516347Y-101480555D01*
X140409471Y-101280602D01*
X140343654Y-101063634D01*
X140321431Y-100838000D01*
X140331432Y-100736454D01*
X140343654Y-100612365D01*
X140409470Y-100395400D01*
X140409471Y-100395398D01*
X140516347Y-100195445D01*
X140660182Y-100020182D01*
X140835445Y-99876347D01*
X141035398Y-99769471D01*
X141035400Y-99769470D01*
X141252365Y-99703654D01*
X141308729Y-99698103D01*
X141421455Y-99687000D01*
X141534545Y-99687000D01*
X141647271Y-99698103D01*
X141647271Y-99698103D01*
G37*
G36*
X132469000Y-101989000D02*
G01*
X130167000Y-101989000D01*
X130167000Y-99687000D01*
X132469000Y-99687000D01*
X132469000Y-101989000D01*
X132469000Y-101989000D01*
G37*
G36*
X150899395Y-98907546D02*
G01*
X151072466Y-98979234D01*
X151072467Y-98979235D01*
X151228227Y-99083310D01*
X151360690Y-99215773D01*
X151360691Y-99215775D01*
X151464766Y-99371534D01*
X151536454Y-99544605D01*
X151573000Y-99728333D01*
X151573000Y-99915667D01*
X151536454Y-100099395D01*
X151464766Y-100272466D01*
X151464765Y-100272467D01*
X151360690Y-100428227D01*
X151228227Y-100560690D01*
X151150890Y-100612365D01*
X151072466Y-100664766D01*
X150899395Y-100736454D01*
X150715667Y-100773000D01*
X150528333Y-100773000D01*
X150344605Y-100736454D01*
X150171534Y-100664766D01*
X150093110Y-100612365D01*
X150015773Y-100560690D01*
X149883310Y-100428227D01*
X149779235Y-100272467D01*
X149779234Y-100272466D01*
X149707546Y-100099395D01*
X149671000Y-99915667D01*
X149671000Y-99728333D01*
X149707546Y-99544605D01*
X149779234Y-99371534D01*
X149883309Y-99215775D01*
X149883310Y-99215773D01*
X150015773Y-99083310D01*
X150171533Y-98979235D01*
X150171534Y-98979234D01*
X150344605Y-98907546D01*
X150528333Y-98871000D01*
X150715667Y-98871000D01*
X150899395Y-98907546D01*
X150899395Y-98907546D01*
G37*
G36*
X149033000Y-100773000D02*
G01*
X147131000Y-100773000D01*
X147131000Y-98871000D01*
X149033000Y-98871000D01*
X149033000Y-100773000D01*
X149033000Y-100773000D01*
G37*
G36*
X141647271Y-94787435D02*
G01*
X141703635Y-94792986D01*
X141920600Y-94858802D01*
X141920602Y-94858803D01*
X142120555Y-94965679D01*
X142295818Y-95109514D01*
X142439653Y-95284777D01*
X142546529Y-95484730D01*
X142612346Y-95701698D01*
X142634569Y-95927332D01*
X142612346Y-96152966D01*
X142546529Y-96369934D01*
X142439653Y-96569887D01*
X142295818Y-96745150D01*
X142120555Y-96888985D01*
X141920602Y-96995861D01*
X141920600Y-96995862D01*
X141703635Y-97061678D01*
X141647271Y-97067229D01*
X141534545Y-97078332D01*
X141421455Y-97078332D01*
X141308729Y-97067229D01*
X141252365Y-97061678D01*
X141035400Y-96995862D01*
X141035398Y-96995861D01*
X140835445Y-96888985D01*
X140660182Y-96745150D01*
X140516347Y-96569887D01*
X140409471Y-96369934D01*
X140343654Y-96152966D01*
X140321431Y-95927332D01*
X140343654Y-95701698D01*
X140409471Y-95484730D01*
X140516347Y-95284777D01*
X140660182Y-95109514D01*
X140835445Y-94965679D01*
X141035398Y-94858803D01*
X141035400Y-94858802D01*
X141252365Y-94792986D01*
X141308729Y-94787435D01*
X141421455Y-94776332D01*
X141534545Y-94776332D01*
X141647271Y-94787435D01*
X141647271Y-94787435D01*
G37*
G36*
X132469000Y-97078332D02*
G01*
X130167000Y-97078332D01*
X130167000Y-94776332D01*
X132469000Y-94776332D01*
X132469000Y-97078332D01*
X132469000Y-97078332D01*
G37*
G36*
X151369000Y-92789000D02*
G01*
X149367000Y-92789000D01*
X149367000Y-90787000D01*
X151369000Y-90787000D01*
X151369000Y-92789000D01*
X151369000Y-92789000D01*
G37*
G36*
X141647271Y-89876769D02*
G01*
X141703635Y-89882320D01*
X141920600Y-89948136D01*
X141920602Y-89948137D01*
X142120555Y-90055013D01*
X142295818Y-90198848D01*
X142439653Y-90374111D01*
X142546529Y-90574064D01*
X142612346Y-90791032D01*
X142634569Y-91016666D01*
X142612346Y-91242300D01*
X142546529Y-91459268D01*
X142439653Y-91659221D01*
X142295818Y-91834484D01*
X142120555Y-91978319D01*
X141920602Y-92085195D01*
X141920600Y-92085196D01*
X141703635Y-92151012D01*
X141647271Y-92156563D01*
X141534545Y-92167666D01*
X141421455Y-92167666D01*
X141308729Y-92156563D01*
X141252365Y-92151012D01*
X141035400Y-92085196D01*
X141035398Y-92085195D01*
X140835445Y-91978319D01*
X140660182Y-91834484D01*
X140516347Y-91659221D01*
X140409471Y-91459268D01*
X140343654Y-91242300D01*
X140321431Y-91016666D01*
X140343654Y-90791032D01*
X140409471Y-90574064D01*
X140516347Y-90374111D01*
X140660182Y-90198848D01*
X140835445Y-90055013D01*
X141035398Y-89948137D01*
X141035400Y-89948136D01*
X141252365Y-89882320D01*
X141308729Y-89876769D01*
X141421455Y-89865666D01*
X141534545Y-89865666D01*
X141647271Y-89876769D01*
X141647271Y-89876769D01*
G37*
G36*
X132469000Y-92167666D02*
G01*
X130167000Y-92167666D01*
X130167000Y-89865666D01*
X132469000Y-89865666D01*
X132469000Y-92167666D01*
X132469000Y-92167666D01*
G37*
G36*
X150659981Y-88325468D02*
G01*
X150842151Y-88400926D01*
X151006100Y-88510473D01*
X151145527Y-88649900D01*
X151255074Y-88813849D01*
X151330532Y-88996019D01*
X151369000Y-89189410D01*
X151369000Y-89386590D01*
X151330532Y-89579981D01*
X151255074Y-89762151D01*
X151145527Y-89926100D01*
X151006100Y-90065527D01*
X150842151Y-90175074D01*
X150659981Y-90250532D01*
X150563285Y-90269766D01*
X150466591Y-90289000D01*
X150269409Y-90289000D01*
X150172715Y-90269766D01*
X150076019Y-90250532D01*
X149893849Y-90175074D01*
X149729900Y-90065527D01*
X149590473Y-89926100D01*
X149480926Y-89762151D01*
X149405468Y-89579981D01*
X149367000Y-89386590D01*
X149367000Y-89189410D01*
X149405468Y-88996019D01*
X149480926Y-88813849D01*
X149590473Y-88649900D01*
X149729900Y-88510473D01*
X149893849Y-88400926D01*
X150076019Y-88325468D01*
X150269409Y-88287000D01*
X150466591Y-88287000D01*
X150659981Y-88325468D01*
X150659981Y-88325468D01*
G37*
G36*
X150659981Y-85825468D02*
G01*
X150842151Y-85900926D01*
X151006100Y-86010473D01*
X151145527Y-86149900D01*
X151255074Y-86313849D01*
X151330532Y-86496019D01*
X151369000Y-86689410D01*
X151369000Y-86886590D01*
X151330532Y-87079981D01*
X151255074Y-87262151D01*
X151145527Y-87426100D01*
X151006100Y-87565527D01*
X150842151Y-87675074D01*
X150659981Y-87750532D01*
X150563285Y-87769766D01*
X150466591Y-87789000D01*
X150269409Y-87789000D01*
X150172715Y-87769766D01*
X150076019Y-87750532D01*
X149893849Y-87675074D01*
X149729900Y-87565527D01*
X149590473Y-87426100D01*
X149480926Y-87262151D01*
X149405468Y-87079981D01*
X149367000Y-86886590D01*
X149367000Y-86689410D01*
X149405468Y-86496019D01*
X149480926Y-86313849D01*
X149590473Y-86149900D01*
X149729900Y-86010473D01*
X149893849Y-85900926D01*
X150076019Y-85825468D01*
X150172715Y-85806234D01*
X150269409Y-85787000D01*
X150466591Y-85787000D01*
X150659981Y-85825468D01*
X150659981Y-85825468D01*
G37*
G36*
X132469000Y-87257000D02*
G01*
X130167000Y-87257000D01*
X130167000Y-84955000D01*
X132469000Y-84955000D01*
X132469000Y-87257000D01*
X132469000Y-87257000D01*
G37*
G36*
X141647271Y-84966103D02*
G01*
X141703635Y-84971654D01*
X141920600Y-85037470D01*
X141920602Y-85037471D01*
X142120555Y-85144347D01*
X142295818Y-85288182D01*
X142439653Y-85463445D01*
X142546529Y-85663398D01*
X142546530Y-85663400D01*
X142612346Y-85880365D01*
X142634569Y-86106000D01*
X142614098Y-86313851D01*
X142612346Y-86331634D01*
X142546529Y-86548602D01*
X142439653Y-86748555D01*
X142295818Y-86923818D01*
X142120555Y-87067653D01*
X141920602Y-87174529D01*
X141920600Y-87174530D01*
X141703635Y-87240346D01*
X141647271Y-87245897D01*
X141534545Y-87257000D01*
X141421455Y-87257000D01*
X141308729Y-87245897D01*
X141252365Y-87240346D01*
X141035400Y-87174530D01*
X141035398Y-87174529D01*
X140835445Y-87067653D01*
X140660182Y-86923818D01*
X140516347Y-86748555D01*
X140409471Y-86548602D01*
X140343654Y-86331634D01*
X140341903Y-86313851D01*
X140321431Y-86106000D01*
X140343654Y-85880365D01*
X140409470Y-85663400D01*
X140409471Y-85663398D01*
X140516347Y-85463445D01*
X140660182Y-85288182D01*
X140835445Y-85144347D01*
X141035398Y-85037471D01*
X141035400Y-85037470D01*
X141252365Y-84971654D01*
X141308729Y-84966103D01*
X141421455Y-84955000D01*
X141534545Y-84955000D01*
X141647271Y-84966103D01*
X141647271Y-84966103D01*
G37*
G36*
X143549823Y-80822313D02*
G01*
X143710242Y-80870976D01*
X143842906Y-80941886D01*
X143858078Y-80949996D01*
X143987659Y-81056341D01*
X144094004Y-81185922D01*
X144094005Y-81185924D01*
X144173024Y-81333758D01*
X144221687Y-81494177D01*
X144238117Y-81661000D01*
X144221687Y-81827823D01*
X144173024Y-81988242D01*
X144102114Y-82120906D01*
X144094004Y-82136078D01*
X143987659Y-82265659D01*
X143858078Y-82372004D01*
X143858076Y-82372005D01*
X143710242Y-82451024D01*
X143549823Y-82499687D01*
X143424804Y-82512000D01*
X143341196Y-82512000D01*
X143216177Y-82499687D01*
X143055758Y-82451024D01*
X142907924Y-82372005D01*
X142907922Y-82372004D01*
X142778341Y-82265659D01*
X142671996Y-82136078D01*
X142663886Y-82120906D01*
X142592976Y-81988242D01*
X142544313Y-81827823D01*
X142527883Y-81661000D01*
X142544313Y-81494177D01*
X142592976Y-81333758D01*
X142671995Y-81185924D01*
X142671996Y-81185922D01*
X142778341Y-81056341D01*
X142907922Y-80949996D01*
X142923094Y-80941886D01*
X143055758Y-80870976D01*
X143216177Y-80822313D01*
X143341196Y-80810000D01*
X143424804Y-80810000D01*
X143549823Y-80822313D01*
X143549823Y-80822313D01*
G37*
G36*
X135070719Y-79481520D02*
G01*
X135259880Y-79538901D01*
X135259883Y-79538902D01*
X135352333Y-79588318D01*
X135434212Y-79632083D01*
X135587015Y-79757485D01*
X135712417Y-79910288D01*
X135805599Y-80084619D01*
X135862980Y-80273780D01*
X135877500Y-80421206D01*
X135877500Y-80614793D01*
X135862980Y-80762219D01*
X135844750Y-80822314D01*
X135805598Y-80951383D01*
X135756182Y-81043833D01*
X135712417Y-81125712D01*
X135587015Y-81278515D01*
X135434212Y-81403917D01*
X135279820Y-81486441D01*
X135265352Y-81494175D01*
X135259881Y-81497099D01*
X135070720Y-81554480D01*
X134874000Y-81573855D01*
X134677281Y-81554480D01*
X134488120Y-81497099D01*
X134482650Y-81494175D01*
X134477546Y-81491447D01*
X134313788Y-81403917D01*
X134160985Y-81278515D01*
X134035583Y-81125712D01*
X133942401Y-80951381D01*
X133885020Y-80762220D01*
X133870500Y-80614794D01*
X133870500Y-80421207D01*
X133885020Y-80273781D01*
X133942401Y-80084620D01*
X133942402Y-80084617D01*
X134017029Y-79945000D01*
X134035583Y-79910288D01*
X134160985Y-79757485D01*
X134313788Y-79632083D01*
X134488119Y-79538901D01*
X134677280Y-79481520D01*
X134874000Y-79462145D01*
X135070719Y-79481520D01*
X135070719Y-79481520D01*
G37*
G36*
X137610719Y-79481520D02*
G01*
X137799880Y-79538901D01*
X137799883Y-79538902D01*
X137892333Y-79588318D01*
X137974212Y-79632083D01*
X138127015Y-79757485D01*
X138252417Y-79910288D01*
X138345599Y-80084619D01*
X138402980Y-80273780D01*
X138417500Y-80421206D01*
X138417500Y-80614793D01*
X138402980Y-80762219D01*
X138384750Y-80822314D01*
X138345598Y-80951383D01*
X138296182Y-81043833D01*
X138252417Y-81125712D01*
X138127015Y-81278515D01*
X137974212Y-81403917D01*
X137819820Y-81486441D01*
X137805352Y-81494175D01*
X137799881Y-81497099D01*
X137610720Y-81554480D01*
X137414000Y-81573855D01*
X137217281Y-81554480D01*
X137028120Y-81497099D01*
X137022650Y-81494175D01*
X137017546Y-81491447D01*
X136853788Y-81403917D01*
X136700985Y-81278515D01*
X136575583Y-81125712D01*
X136482401Y-80951381D01*
X136425020Y-80762220D01*
X136410500Y-80614794D01*
X136410500Y-80421207D01*
X136425020Y-80273781D01*
X136482401Y-80084620D01*
X136482402Y-80084617D01*
X136557029Y-79945000D01*
X136575583Y-79910288D01*
X136700985Y-79757485D01*
X136853788Y-79632083D01*
X137028119Y-79538901D01*
X137217280Y-79481520D01*
X137414000Y-79462145D01*
X137610719Y-79481520D01*
X137610719Y-79481520D01*
G37*
G36*
X133337500Y-81569000D02*
G01*
X131330500Y-81569000D01*
X131330500Y-79467000D01*
X133337500Y-79467000D01*
X133337500Y-81569000D01*
X133337500Y-81569000D01*
G37*
G36*
X149033000Y-79945000D02*
G01*
X147131000Y-79945000D01*
X147131000Y-78043000D01*
X149033000Y-78043000D01*
X149033000Y-79945000D01*
X149033000Y-79945000D01*
G37*
G36*
X150899395Y-78079546D02*
G01*
X151072466Y-78151234D01*
X151072467Y-78151235D01*
X151228227Y-78255310D01*
X151360690Y-78387773D01*
X151360691Y-78387775D01*
X151464766Y-78543534D01*
X151536454Y-78716605D01*
X151573000Y-78900333D01*
X151573000Y-79087667D01*
X151536454Y-79271395D01*
X151464766Y-79444466D01*
X151464765Y-79444467D01*
X151360690Y-79600227D01*
X151228227Y-79732690D01*
X151191118Y-79757485D01*
X151072466Y-79836766D01*
X150899395Y-79908454D01*
X150715667Y-79945000D01*
X150528333Y-79945000D01*
X150344605Y-79908454D01*
X150171534Y-79836766D01*
X150052882Y-79757485D01*
X150015773Y-79732690D01*
X149883310Y-79600227D01*
X149779235Y-79444467D01*
X149779234Y-79444466D01*
X149707546Y-79271395D01*
X149671000Y-79087667D01*
X149671000Y-78900333D01*
X149707546Y-78716605D01*
X149779234Y-78543534D01*
X149883309Y-78387775D01*
X149883310Y-78387773D01*
X150015773Y-78255310D01*
X150171533Y-78151235D01*
X150171534Y-78151234D01*
X150344605Y-78079546D01*
X150528333Y-78043000D01*
X150715667Y-78043000D01*
X150899395Y-78079546D01*
X150899395Y-78079546D01*
G37*
G36*
X143631228Y-73222703D02*
G01*
X143786100Y-73286853D01*
X143925481Y-73379985D01*
X144044015Y-73498519D01*
X144137147Y-73637900D01*
X144201297Y-73792772D01*
X144234000Y-73957184D01*
X144234000Y-74124816D01*
X144201297Y-74289228D01*
X144137147Y-74444100D01*
X144044015Y-74583481D01*
X143925481Y-74702015D01*
X143786100Y-74795147D01*
X143631228Y-74859297D01*
X143466816Y-74892000D01*
X143299184Y-74892000D01*
X143134772Y-74859297D01*
X142979900Y-74795147D01*
X142840519Y-74702015D01*
X142721985Y-74583481D01*
X142628853Y-74444100D01*
X142564703Y-74289228D01*
X142532000Y-74124816D01*
X142532000Y-73957184D01*
X142564703Y-73792772D01*
X142628853Y-73637900D01*
X142721985Y-73498519D01*
X142840519Y-73379985D01*
X142979900Y-73286853D01*
X143134772Y-73222703D01*
X143299184Y-73190000D01*
X143466816Y-73190000D01*
X143631228Y-73222703D01*
X143631228Y-73222703D01*
G37*
G36*
X133385000Y-71028000D02*
G01*
X131283000Y-71028000D01*
X131283000Y-68926000D01*
X133385000Y-68926000D01*
X133385000Y-71028000D01*
X133385000Y-71028000D01*
G37*
G36*
X137640564Y-68966389D02*
G01*
X137831833Y-69045615D01*
X137831835Y-69045616D01*
X138003973Y-69160635D01*
X138150365Y-69307027D01*
X138232846Y-69430468D01*
X138265385Y-69479167D01*
X138344611Y-69670436D01*
X138385000Y-69873484D01*
X138385000Y-70080516D01*
X138344611Y-70283564D01*
X138265385Y-70474833D01*
X138265384Y-70474835D01*
X138150365Y-70646973D01*
X138003973Y-70793365D01*
X137831835Y-70908384D01*
X137831834Y-70908385D01*
X137831833Y-70908385D01*
X137640564Y-70987611D01*
X137437516Y-71028000D01*
X137230484Y-71028000D01*
X137027436Y-70987611D01*
X136836167Y-70908385D01*
X136836166Y-70908385D01*
X136836165Y-70908384D01*
X136664027Y-70793365D01*
X136517635Y-70646973D01*
X136402616Y-70474835D01*
X136402615Y-70474833D01*
X136323389Y-70283564D01*
X136283000Y-70080516D01*
X136283000Y-69873484D01*
X136323389Y-69670436D01*
X136402615Y-69479167D01*
X136435155Y-69430468D01*
X136517635Y-69307027D01*
X136664027Y-69160635D01*
X136836165Y-69045616D01*
X136836167Y-69045615D01*
X137027436Y-68966389D01*
X137230484Y-68926000D01*
X137437516Y-68926000D01*
X137640564Y-68966389D01*
X137640564Y-68966389D01*
G37*
G36*
X154923443Y-68189519D02*
G01*
X154989627Y-68196037D01*
X155159466Y-68247557D01*
X155315991Y-68331222D01*
X155351729Y-68360552D01*
X155453186Y-68443814D01*
X155536448Y-68545271D01*
X155565778Y-68581009D01*
X155649443Y-68737534D01*
X155700963Y-68907373D01*
X155718359Y-69084000D01*
X155700963Y-69260627D01*
X155649443Y-69430466D01*
X155565778Y-69586991D01*
X155536448Y-69622729D01*
X155453186Y-69724186D01*
X155351729Y-69807448D01*
X155315991Y-69836778D01*
X155159466Y-69920443D01*
X154989627Y-69971963D01*
X154923442Y-69978482D01*
X154857260Y-69985000D01*
X154768740Y-69985000D01*
X154702558Y-69978482D01*
X154636373Y-69971963D01*
X154466534Y-69920443D01*
X154310009Y-69836778D01*
X154274271Y-69807448D01*
X154172814Y-69724186D01*
X154089552Y-69622729D01*
X154060222Y-69586991D01*
X153976557Y-69430466D01*
X153925037Y-69260627D01*
X153907641Y-69084000D01*
X153925037Y-68907373D01*
X153976557Y-68737534D01*
X154060222Y-68581009D01*
X154089552Y-68545271D01*
X154172814Y-68443814D01*
X154274271Y-68360552D01*
X154310009Y-68331222D01*
X154466534Y-68247557D01*
X154636373Y-68196037D01*
X154702557Y-68189519D01*
X154768740Y-68183000D01*
X154857260Y-68183000D01*
X154923443Y-68189519D01*
X154923443Y-68189519D01*
G37*
G36*
X157463443Y-68189519D02*
G01*
X157529627Y-68196037D01*
X157699466Y-68247557D01*
X157855991Y-68331222D01*
X157891729Y-68360552D01*
X157993186Y-68443814D01*
X158076448Y-68545271D01*
X158105778Y-68581009D01*
X158189443Y-68737534D01*
X158240963Y-68907373D01*
X158258359Y-69084000D01*
X158240963Y-69260627D01*
X158189443Y-69430466D01*
X158105778Y-69586991D01*
X158076448Y-69622729D01*
X157993186Y-69724186D01*
X157891729Y-69807448D01*
X157855991Y-69836778D01*
X157699466Y-69920443D01*
X157529627Y-69971963D01*
X157463442Y-69978482D01*
X157397260Y-69985000D01*
X157308740Y-69985000D01*
X157242558Y-69978482D01*
X157176373Y-69971963D01*
X157006534Y-69920443D01*
X156850009Y-69836778D01*
X156814271Y-69807448D01*
X156712814Y-69724186D01*
X156629552Y-69622729D01*
X156600222Y-69586991D01*
X156516557Y-69430466D01*
X156465037Y-69260627D01*
X156447641Y-69084000D01*
X156465037Y-68907373D01*
X156516557Y-68737534D01*
X156600222Y-68581009D01*
X156629552Y-68545271D01*
X156712814Y-68443814D01*
X156814271Y-68360552D01*
X156850009Y-68331222D01*
X157006534Y-68247557D01*
X157176373Y-68196037D01*
X157242557Y-68189519D01*
X157308740Y-68183000D01*
X157397260Y-68183000D01*
X157463443Y-68189519D01*
X157463443Y-68189519D01*
G37*
G36*
X145877228Y-67380703D02*
G01*
X146032100Y-67444853D01*
X146171481Y-67537985D01*
X146290015Y-67656519D01*
X146383147Y-67795900D01*
X146447297Y-67950772D01*
X146480000Y-68115184D01*
X146480000Y-68282816D01*
X146447297Y-68447228D01*
X146383147Y-68602100D01*
X146290015Y-68741481D01*
X146171481Y-68860015D01*
X146032100Y-68953147D01*
X145877228Y-69017297D01*
X145712816Y-69050000D01*
X145545184Y-69050000D01*
X145380772Y-69017297D01*
X145225900Y-68953147D01*
X145086519Y-68860015D01*
X144967985Y-68741481D01*
X144874853Y-68602100D01*
X144810703Y-68447228D01*
X144778000Y-68282816D01*
X144778000Y-68115184D01*
X144810703Y-67950772D01*
X144874853Y-67795900D01*
X144967985Y-67656519D01*
X145086519Y-67537985D01*
X145225900Y-67444853D01*
X145380772Y-67380703D01*
X145545184Y-67348000D01*
X145712816Y-67348000D01*
X145877228Y-67380703D01*
X145877228Y-67380703D01*
G37*
G36*
X143980000Y-69050000D02*
G01*
X142278000Y-69050000D01*
X142278000Y-67348000D01*
X143980000Y-67348000D01*
X143980000Y-69050000D01*
X143980000Y-69050000D01*
G37*
G36*
X155714000Y-67445000D02*
G01*
X153912000Y-67445000D01*
X153912000Y-65643000D01*
X155714000Y-65643000D01*
X155714000Y-67445000D01*
X155714000Y-67445000D01*
G37*
G36*
X157463442Y-65649518D02*
G01*
X157529627Y-65656037D01*
X157699466Y-65707557D01*
X157855991Y-65791222D01*
X157891729Y-65820552D01*
X157993186Y-65903814D01*
X158076448Y-66005271D01*
X158105778Y-66041009D01*
X158189443Y-66197534D01*
X158240963Y-66367373D01*
X158258359Y-66544000D01*
X158240963Y-66720627D01*
X158189443Y-66890466D01*
X158105778Y-67046991D01*
X158076448Y-67082729D01*
X157993186Y-67184186D01*
X157891729Y-67267448D01*
X157855991Y-67296778D01*
X157699466Y-67380443D01*
X157529627Y-67431963D01*
X157463443Y-67438481D01*
X157397260Y-67445000D01*
X157308740Y-67445000D01*
X157242557Y-67438481D01*
X157176373Y-67431963D01*
X157006534Y-67380443D01*
X156850009Y-67296778D01*
X156814271Y-67267448D01*
X156712814Y-67184186D01*
X156629552Y-67082729D01*
X156600222Y-67046991D01*
X156516557Y-66890466D01*
X156465037Y-66720627D01*
X156447641Y-66544000D01*
X156465037Y-66367373D01*
X156516557Y-66197534D01*
X156600222Y-66041009D01*
X156629552Y-66005271D01*
X156712814Y-65903814D01*
X156814271Y-65820552D01*
X156850009Y-65791222D01*
X157006534Y-65707557D01*
X157176373Y-65656037D01*
X157242558Y-65649518D01*
X157308740Y-65643000D01*
X157397260Y-65643000D01*
X157463442Y-65649518D01*
X157463442Y-65649518D01*
G37*
M02*
