M48
; DRILL file {KiCad (5.1.4)-1} date 17.09.2019 14:57:00
; FORMAT={-:-/ absolute / inch / decimal}
; #@! TF.CreationDate,2019-09-17T14:57:00+03:00
; #@! TF.GenerationSoftware,Kicad,Pcbnew,(5.1.4)-1
; #@! TF.FileFunction,Plated,1,2,PTH
FMAT,2
INCH
T1C0.0315
T2C0.0354
T3C0.0394
T4C0.0433
T5C0.0630
%
G90
G05
T1
X5.635Y-2.685
X5.7334Y-2.685
X5.645Y-2.915
X5.645Y-3.215
X5.885Y-4.18
X5.885Y-4.48
T2
X5.83Y-3.11
X5.93Y-3.11
X5.83Y-3.93
X5.93Y-3.93
X5.92Y-3.4169
X5.92Y-3.5153
X5.92Y-3.6137
T3
X5.21Y-2.755
X5.4069Y-2.755
X6.095Y-2.6198
X6.095Y-2.7198
X6.195Y-2.6198
X6.195Y-2.7198
X6.095Y-4.39
X6.095Y-4.49
X6.195Y-4.39
X6.195Y-4.49
T4
X5.17Y-3.7767
X5.57Y-3.7767
X5.17Y-3.97
X5.57Y-3.97
X5.21Y-3.17
X5.31Y-3.17
X5.41Y-3.17
X5.17Y-3.5833
X5.57Y-3.5833
X5.17Y-3.39
X5.57Y-3.39
T5
X5.4138Y-4.31
X5.5319Y-4.495
X5.65Y-4.31
T0
M30
